<svg xmlns="http://www.w3.org/2000/svg" class="looka-1j8o68f" width="226.97" height="155.62" viewBox="0 0 312.5 214.27">
    <g transform="scale(1.5351)" fill="#111" featurekey="rootContainer">
        <g xmlns="http://www.w3.org/2000/svg">
            <path d="M177.937 21.107c-7.555-2.331-63.43-11.68-76.135-12.183-12.706.503-68.578 9.852-76.136 12.183-.273 15.579-15.28 48.684-15.28 48.684s15.008 33.106 15.28 48.685c7.558 2.33 63.43 11.68 76.136 12.183 12.705-.503 68.58-9.854 76.135-12.183.273-15.579 15.28-48.685 15.28-48.685 0-.001-15.007-33.106-15.28-48.684z"/>
            <path d="M202.322 67.019v-.001c-4.206-9.257-15.17-35.968-15.385-48.239l-.085-4.588-3.973-1.228C175.252 10.612 115.756.551 102.006.01l-.202-.01-.211.01C87.828.552 28.345 10.613 20.726 12.965l-3.979 1.227-.081 4.588c-.21 12.217-11.175 38.961-15.382 48.235L.023 69.793l.001.002-.024.054.164.253 1.12 2.463c4.207 9.275 15.172 36.021 15.383 48.237l.081 4.589 3.978 1.228c7.621 2.351 67.104 12.411 80.859 12.953l.219.012.192-.012c13.763-.541 73.258-10.602 80.883-12.954l3.972-1.227.085-4.589c.214-12.266 11.178-38.98 15.385-48.24l1.254-2.771-1.253-2.772zm-5.767 9.136c-4.281 10.137-13.221 32.679-13.435 44.571l-.023 1.544-1.267.391c-7.527 2.319-66.349 12.257-79.963 12.797l-.049.002-.075-.001c-13.623-.541-72.443-10.479-79.97-12.797l-1.268-.392-.026-1.545c-.215-12.279-9.748-35.933-13.837-45.533a241.11 241.11 0 0 0-1.938-4.446l-.434-.955.432-.951c.07-.153.839-1.865 1.939-4.449 4.089-9.6 13.622-33.255 13.837-45.533l.026-1.545 1.268-.391c7.534-2.32 66.356-12.258 79.971-12.798l.031-.003.083.003c13.615.54 72.44 10.477 79.973 12.797l1.267.392.023 1.546c.213 11.888 9.154 34.431 13.435 44.569h-.007l.411.964a232.956 232.956 0 0 0 1.938 4.445l.435.955-.435.953c-.066.142-.822 1.831-1.938 4.448l-.406.964h.002z"/>
        </g>
    </g>
    <g transform="matrix(.69443 0 0 .69443 121.53 38.528)" fill="#fcfcfc" featurekey="symbolFeature-0">
        <g xmlns="http://www.w3.org/2000/svg">
            <path d="m91.25 46.25h-7.72c-0.72-6.506-3.292-12.447-7.176-17.302l5.466-5.464c1.465-1.465 1.465-3.84 0-5.305-1.467-1.463-3.838-1.463-5.305 0l-5.466 5.466c-4.853-3.882-10.792-6.454-17.3-7.176v-7.719c1e-3 -2.069-1.68-3.75-3.749-3.75-2.073 0-3.75 1.681-3.75 3.75v7.72c-6.508 0.722-12.449 3.294-17.304 7.176l-5.464-5.466c-1.465-1.463-3.839-1.463-5.304 0-1.461 1.465-1.461 3.84 0 5.305l5.465 5.464c-3.88 4.854-6.452 10.796-7.176 17.302h-7.717c-2.073-1e-3 -3.75 1.68-3.75 3.749s1.677 3.75 3.75 3.75h7.718c0.724 6.508 3.296 12.447 7.176 17.304l-5.465 5.464c-1.461 1.465-1.461 3.838 0 5.303 1.465 1.465 3.839 1.465 5.304 0l5.464-5.464c4.854 3.882 10.796 6.454 17.304 7.174v7.72c0 2.069 1.677 3.75 3.75 3.75 2.069 0 3.75-1.681 3.75-3.75v-7.72c6.508-0.72 12.447-3.292 17.3-7.174l5.466 5.464c1.467 1.465 3.838 1.465 5.305 0 1.465-1.465 1.465-3.838 0-5.303l-5.466-5.464c3.884-4.856 6.456-10.796 7.176-17.304h7.72c2.069 0 3.75-1.681 3.75-3.75s-1.683-3.75-3.752-3.75m-37.5-22.2c4.435 0.637 8.509 2.384 11.94 4.955l-11.94 11.942v-16.897zm-7.5 0v16.897l-11.94-11.942c3.433-2.57 7.505-4.317 11.94-4.955m-17.243 10.258 11.94 11.942h-16.899c0.641-4.435 2.387-8.507 4.959-11.942m-4.959 19.442h16.899l-11.94 11.942c-2.572-3.433-4.318-7.505-4.959-11.942m22.202 22.2c-4.435-0.637-8.507-2.382-11.94-4.955l11.94-11.942v16.897zm3.75-21.731c-2.329 0-4.219-1.888-4.219-4.219 0-2.329 1.89-4.219 4.219-4.219 2.327 0 4.219 1.89 4.219 4.219 0 2.331-1.892 4.219-4.219 4.219m3.75 21.731v-16.897l11.94 11.942c-3.431 2.572-7.505 4.317-11.94 4.955m17.243-10.258-11.938-11.942h16.897c-0.64 4.437-2.387 8.509-4.959 11.942m-11.938-19.442 11.938-11.942c2.572 3.436 4.319 7.508 4.958 11.942h-16.896z" fill="#fcfcfc"/>
        </g>
    </g>
    <g transform="matrix(.75341 0 0 .75341 55.397 121)" fill="#fcfcfc" featurekey="nameFeature-0">
        <path d="m10.849 4.56v0.70246l-0.13172 0.13207v-0.9673zm-0.276-0.277v1.2553l-0.13207 0.13207v-1.5202zm-0.275-0.277v1.8075l-0.13207 0.13207v-1.8428l0.11457-0.11457zm-0.276 0.241v1.8428l-0.13207 0.13207v-1.8432zm-0.2752 0.275v1.8432l-0.13172 0.13172v-1.8428zm-0.2756 0.276v1.8428l-0.13207 0.13207v-1.8428zm-0.2752 0.275v1.8432l-0.13207 0.13207v-1.8432zm-1.102 17.825-0.052576-0.05254 0.0052736-16.623 0.047304-0.047656v16.723zm0.2756 0.276-0.13207-0.13207v-17.01l0.13207-0.13207v17.274zm0.5508 0.552-0.13207-0.13207v-18.113l0.13207-0.13207v18.377zm-0.2756-0.276-0.13172-0.13207v-17.561l0.13172-0.13207v17.826zm1.6532 1.658v0.73434l-0.13207 0.13207v-0.99918zm-0.276-0.278v1.2868l-0.13207 0.13207v-1.5517zm-0.2752-0.277v1.8396l-0.13172 0.13207v-1.8432l0.12996-0.13031zm-0.2756 0.273v1.8432l-0.13207 0.13207v-1.8432zm-0.2752 0.275v1.8432l-0.13207 0.13207v-1.8432zm-0.2756 8.6622h-0.13207v-8.2545l0.13207-0.13207v8.3866zm-0.2756 0h-0.13172v-7.9788l0.13172-0.13207v8.1108zm-0.2752 0h-0.13207v-7.703l0.13207-0.13207v7.8351zm-0.2756 0h-0.055703l0.0021094-7.506 0.053592-0.053244v7.5594zm10.336 5.2909 0.13207 0.35629v0.58965h-0.13207v-0.94594zm-2.348-6.3365v1.5562l-0.13207-0.35629v-1.4431l0.066912 0.067264zm-0.275-0.3876v1.1999l-0.13207-0.35629v-0.97641zm-0.275-0.2772v0.73363l-0.13207-0.35664v-0.50942zm2.622 7.9472v-1.6893l0.13172 0.35629v1.333h-0.13172zm-0.276 3.9062e-5v-2.4331l0.13207 0.35629v2.0768h-0.13207zm-0.143 3.9066e-5h-0.13207v-0.92387h0.13207v0.92387zm-0.132-1.6207v-1.5562l0.13207 0.35629v1.5562zm-0.275-0.7438v-1.5562l0.13207 0.35629v1.5562zm0.132 2.3645h-0.13207v-0.92387h0.13207v0.92387zm-0.408-3.1079v-1.5562l0.13172 0.35629v1.5562zm0.132 3.1078h-0.13207v-0.92387h0.13207v0.92387zm-0.275 0h-0.13207v-0.92387h0.13207v0.92387zm0-5.0516v1.5562l-0.13207-0.35629v-1.5562zm-0.276-0.7436v1.5562l-0.13207-0.35629v-1.5562zm0 5.7952h-0.13207v-0.92387h0.13207v0.92387zm-0.275-6.5388v1.5562l-0.13207-0.35664v-1.5562zm0 6.5388h-0.13207v-0.92387h0.13207v0.92387zm-0.276 0h-0.13207v-0.92387h0.13207v0.92387zm-0.275 0h-0.13207v-0.92387h0.13207v0.92387zm-0.275 0h-0.13207v-0.92387h0.13207v0.92387zm-0.276 0h-0.13207v-0.92387h0.13207v0.92387zm-0.276 0h-0.13207v-0.92387h0.13207v0.92387zm-0.275 0h-0.13207v-0.92387h0.13207v0.92387zm-0.275 0h-0.13207v-0.92387h0.13207v0.92387zm-0.276 0h-0.13207v-0.92387h0.13207v0.92387zm-0.275 0h-0.13207v-0.92387h0.13207v0.92387zm-0.276 0h-0.13207v-0.92387h0.13207v0.92387zm-0.275 0h-0.13207v-0.92387h0.13207v0.92387zm-0.275 0h-0.13207v-0.92387h0.13207v0.92387zm-0.276 0h-0.13207v-0.92387h0.13207v0.92387zm-0.275 0h-0.13207v-0.92387h0.13207v0.92387zm-0.276 0h-0.13207v-0.92387h0.13207v0.92387zm-0.275 0h-0.13207v-0.92387h0.13207v0.92387zm-0.276 0h-0.13207v-0.92387h0.13207v0.92387zm-0.275 0h-0.13207v-0.92387h0.13207v0.92387zm-0.276 0h-0.13207v-0.92387h0.13207v0.92387zm-0.275 0h-0.13207v-0.92387h0.13207v0.92387zm-0.275 0h-0.13207v-0.92387h0.13207v0.92387zm-0.276 0h-0.13207v-0.92387h0.13207v0.92387zm-0.275 0h-0.13207v-0.92387h0.13207v0.92387zm-0.2754 0h-0.13207v-0.92387h0.13207v0.92387zm-0.276 0h-0.13207v-0.92387h0.13207v0.92387zm-0.2752 0h-0.13207v-0.92387h0.13207v0.92387zm-0.2752 0h-0.13207v-0.92387h0.13207v0.92387zm-0.2756 0h-0.13207v-0.92387h0.13207v0.92387zm-0.2756 0h-0.13207v-0.92387h0.13207v0.92387zm-0.2752 0h-0.13207v-0.92387h0.13207v0.92387zm-0.2756 0h-0.13207v-0.92387h0.13207v0.92387zm-0.2752 0h-0.13207v-0.92387h0.13207v0.92387zm-0.2756 0h-0.13207v-0.92387h0.13207v0.92387zm-0.2756 0h-0.13207v-0.92387h0.13207v0.92387zm-0.2752 0h-0.13207v-0.92387h0.13207v0.92387zm-0.2756 0h-0.13207v-0.92387h0.13207v0.92387zm-0.2756 0h-0.13207v-0.92387h0.13207v0.92387zm-0.2752 0h-0.13207v-0.92387h0.13207v0.92387zm-0.2756 0h-0.13207v-0.92387h0.13207v0.92387zm-0.2752 0h-0.13207v-0.92387h0.13207v0.92387zm-0.2756 0h-0.13207v-0.92387h0.13207v0.92387zm-0.2756 0h-0.13207v-0.92387h0.13207v0.92387zm-0.2752 0h-0.13207v-0.92387h0.13207v0.92387zm-0.2752 0h-0.13207v-0.92387h0.13207v0.92387zm-0.2759 0h-0.13207v-0.92387h0.13207v0.92387zm-0.2753 0h-0.13207v-0.92387h0.13207v0.92387zm-0.2754 0h-0.13207v-0.92387h0.13207v0.92387zm-0.2753 0h-0.13207v-0.92387h0.13207v0.92387zm-0.2757 0h-0.13207v-0.92387h0.13207v0.92387zm-0.2754 0h-0.13207v-0.92387h0.13207v0.92387zm-0.2753 0h-0.13207v-0.92387h0.13207v0.92387zm-0.2757 0h-0.13207v-0.92387h0.13207v0.92387zm-0.2754 0h-0.13207v-0.92387h0.13207v0.92387zm-0.4074-0.057111v-0.86676h0.13207v0.92387h-0.074961zm-0.2754-0.27711v-0.58965h0.13172v0.72242zm-0.27576-0.27714v-0.3125h0.13207v0.44527zm0.97296-0.83458 1.4872-1.4872v-11.026l-1.4872-1.4872 1.4872-1.4872v-17.063l-1.4872-1.4872h7.2329l-1.4872 1.4872v17.063l1.4872 1.4872-1.4872 1.4872v8.2545h6.5304l0.93612-1.4872 0.55108 1.4872 1.578 4.2584h-15.341zm35.308-29.601v-1.5573l0.13172 0.35664v1.5573zm-0.144-1.945v1.5573l-0.13207-0.35629v-1.5573zm-0.275-0.744v1.5573l-0.13207-0.35664v-1.5573zm-0.275-0.744v1.5573l-0.13207-0.35664v-1.5573zm-0.276-0.658v1.4714l-0.13172-0.35629v-1.2479zm-0.275-0.277v1.0048l-0.13207-0.35664v-0.78094zm-0.276-0.277v0.53742l-0.13207-0.35629v-0.31391zm-0.551 5.153v0.76656h-0.13172v-0.86289zm-0.275 0.766h-0.13207v-0.92387h0.13207v0.92387zm-0.275 0h-0.13207v-0.92387h0.13207v0.92387zm-0.276 0h-0.13207v-0.92387h0.13207v0.92387zm-0.275 0h-0.13207v-0.92387h0.13207v0.92387zm-0.276 0h-0.13207v-0.92387h0.13207v0.92387zm-0.275 0h-0.13207v-0.92387h0.13207v0.92387zm-0.276 0h-0.13207v-0.92387h0.13207v0.92387zm-1.928 0h-0.13207v-0.92387h0.13207v0.92387zm-0.275 0h-0.13207v-0.92387h0.13207v0.92387zm-0.276 0h-0.13207v-0.92387h0.13207v0.92387zm-0.275 0h-0.13207v-0.92387h0.13207v0.92387zm-0.276 0h-0.13207v-0.92387h0.13207v0.92387zm-0.2752 0h-0.13207v-0.92387h0.13207v0.92387zm-0.2756 0h-0.13207v-0.92387h0.13207v0.92387zm-0.2752 0h-0.13207v-0.92387h0.13207v0.92387zm-0.3732 11.667h-0.034297v-12.591h0.13207v0.92422h-0.094258zm-0.1776 0h-0.13207v-12.591h0.13207v12.591zm-0.5512 0h-0.13207v-12.591h0.13207v12.591zm10.611-10.034 0.13207 0.35629v0.3125l-0.13207-0.096328v-0.57246zm-0.275 0.371v-1.1155l0.13207 0.35664v0.8552zm-0.276-0.201v-1.6582l0.13172 0.35629v1.3982zm-0.276-0.845v-1.5573l0.13207 0.35664v1.5573zm-0.275-0.744v-1.5573l0.13207 0.35629v1.5573zm-0.275-0.744v-1.5573l0.13207 0.35629v1.5573zm-1.796 0.166v0.36438h-0.13207v-0.4607zm-0.276-0.201v0.56547h-0.13207v-0.6618zm-2.479 0.565h-0.13207v-0.92387h0.13207v0.92387zm-0.276 0h-0.13207v-0.92387h0.13207v0.92387zm-0.275 0h-0.13207v-0.92387h0.13207v0.92387zm-0.275 0h-0.13207v-0.92387h0.13207v0.92387zm-0.276 0h-0.13207v-0.92387h0.13207v0.92387zm-0.275 0h-0.13207v-0.92387h0.13207v0.92387zm-3.0304 11.667h-0.13207v-12.591h0.13207v12.591zm3.7244-0.545v-1.0069l0.13207 0.13277v1.2321zm-0.275-0.747v-0.53672l0.13207 0.13277v0.76164zm3.988 9.25v0.50836l-0.13207-0.096328v-0.77008zm-0.275-0.747v1.0545l-0.13207-0.09668v-1.3159zm-0.276-0.747v1.6004l-0.13207-0.096328v-0.25262l0.020664 0.015078-0.020664-0.056408v-1.5678zm-0.407 0.462v-1.5678l0.13172 0.35805v1.5678zm-0.276-0.747v-1.5678l0.13207 0.35805v1.5678zm-0.275-0.747v-1.5678l0.13207 0.35805v1.5678zm-0.276-0.747v-1.5678l0.13207 0.35805v1.5678zm-0.275-0.747v-1.5678l0.13172 0.35805v1.5678zm-0.276-0.748v-1.5678l0.13207 0.35805v1.5678zm-0.275-0.747v-1.5678l0.13207 0.35805v1.5678zm-0.276-0.747v-1.5678l0.13207 0.35805v1.5678zm-0.275-0.747v-1.5678l0.13207 0.35805v1.5678zm-0.276-0.747v-1.4771l0.053244 0.053592 0.078828 0.21371v1.5678zm0.132 6.035h-0.13207v-0.53531l0.13207 0.096328v0.43898zm-0.275 0h-0.13207v-0.73676l0.13207 0.096328v0.64043zm-0.408 0v-0.92422h0.018906l0.11316 0.082696v0.84152h-0.13207zm-0.143 0h-0.13207v-0.92387h0.13207v0.92387zm-0.275 0h-0.13207v-0.92387h0.13207v0.92387zm-0.276 0h-0.13207v-0.92387h0.13207v0.92387zm-0.275 0h-0.13207v-0.92387h0.13207v0.92387zm-0.276 0h-0.13207v-0.92387h0.13207v0.92387zm-0.275 0h-0.13207v-0.92387h0.13207v0.92387zm-0.276 0h-0.13207v-0.92387h0.13207v0.92387zm-0.2748 0h-0.13207v-0.92387h0.13207v0.92387zm-0.276 0h-0.13207v-0.92387h0.13207v0.92387zm-0.2752 0h-0.13207v-0.92387h0.13207v0.92387zm-0.3764 5.6322h-0.03082v-6.556h0.13207v0.92422h-0.099492zm-0.1744 0h-0.13207v-6.556h0.13207v6.556zm-0.2756 0h-0.13207v-6.556h0.13207v6.556zm-0.2752 0h-0.13207v-6.556h0.13207v6.556zm7.9876 0.8804-0.13172-0.35629v-1.5577l0.13172 0.35629v1.5577zm-0.407-1.1004v-1.2087l0.13207 0.13277v1.4322zm-0.275-0.7444v-0.74168l0.13207 0.13277v0.96555zm-0.276-0.744v-0.27469l0.13207 0.13277v0.49856zm3.306 7.9451v-0.57352l0.13207 0.35664v0.21688h-0.13207zm-0.276 0v-1.3177l0.13172 0.35664v0.96102h-0.13172zm-0.275 0v-2.0618l0.13207 0.35664v1.7051h-0.13207zm-0.276-1.2483v-1.5576l0.13207 0.35664v2.4493h-0.13207v-0.92387h0.12016zm-0.275-0.7441v-1.5577l0.13207 0.35664v1.5577zm0.132 1.9924h-0.13207v-0.92387h0.13207v0.92387zm-0.408-2.7365v-1.5577l0.13172 0.35664v1.5577zm0.133 2.7365h-0.13207v-0.92387h0.13207v0.92387zm-0.276 0h-0.13207v-0.92387h0.13207v0.92387zm0-3.124-0.13207-0.35664v-1.5577l0.13207 0.35664v1.5577zm-0.275 3.124h-0.13207v-0.92387h0.13207v0.92387zm0-3.8681-0.13207-0.35664v-1.5577l0.13207 0.35664v1.5577zm-0.276-0.7442-0.13207-0.35664v-1.5577l0.13207 0.35664v1.5577zm0 4.6123h-0.13207v-0.92387h0.13207v0.92387zm-0.275 0h-0.13207v-0.92387h0.13207v0.92387zm-0.276 0h-0.13207v-0.92387h0.13207v0.92387zm-0.275 0h-0.13207v-0.92387h0.13207v0.92387zm-0.276 0h-0.13207v-0.92387h0.13207v0.92387zm-0.275 0h-0.13207v-0.92387h0.13207v0.92387zm-0.276 0h-0.13207v-0.92387h0.13207v0.92387zm-0.275 0h-0.13207v-0.92387h0.13207v0.92387zm-0.275 0h-0.13207v-0.92387h0.13207v0.92387zm-0.276 0h-0.13207v-0.92387h0.13207v0.92387zm-0.275 0h-0.13207v-0.92387h0.13207v0.92387zm-0.276 0h-0.13207v-0.92387h0.13207v0.92387zm-0.275 0h-0.13207v-0.92387h0.13207v0.92387zm-0.276 0h-0.13207v-0.92387h0.13207v0.92387zm-0.275 0h-0.13207v-0.92387h0.13207v0.92387zm-0.276 0h-0.13207v-0.92387h0.13207v0.92387zm-0.275 0h-0.13207v-0.92387h0.13207v0.92387zm-0.275 0h-0.13207v-0.92387h0.13207v0.92387zm-0.276 0h-0.13207v-0.92387h0.13207v0.92387zm-0.275 0h-0.13207v-0.92387h0.13207v0.92387zm-0.275 0h-0.13207v-0.92387h0.13207v0.92387zm-0.276 0h-0.13207v-0.92387h0.13207v0.92387zm-0.276 0h-0.13207v-0.92387h0.13207v0.92387zm-0.275 0h-0.13207v-0.92387h0.13207v0.92387zm-0.2754 0h-0.13207v-0.92387h0.13207v0.92387zm-0.2756 0h-0.13207v-0.92387h0.13207v0.92387zm-0.2756 0h-0.13207v-0.92387h0.13207v0.92387zm-0.2752 0h-0.13207v-0.92387h0.13207v0.92387zm-0.2752 0h-0.13207v-0.92387h0.13207v0.92387zm-0.276 0h-0.13207v-0.92387h0.13207v0.92387zm-0.2752 0h-0.13207v-0.92387h0.13207v0.92387zm-0.2752 0h-0.13207v-0.92387h0.13207v0.92387zm-0.2756 0h-0.13207v-0.92387h0.13207v0.92387zm-0.2756 0h-0.13207v-0.92387h0.13207v0.92387zm-0.2752 0h-0.13207v-0.92387h0.13207v0.92387zm-0.2756 0h-0.13207v-0.92387h0.13207v0.92387zm-0.2752 0h-0.13207v-0.92387h0.13207v0.92387zm-0.2756 0h-0.13207v-0.92387h0.13207v0.92387zm-0.2756 0h-0.13207v-0.92387h0.13207v0.92387zm-0.2752 0h-0.13207v-0.92387h0.13207v0.92387zm-0.2752 0h-0.13207v-0.92387h0.13207v0.92387zm-0.276 0h-0.13207v-0.92387h0.13207v0.92387zm-0.2752 0h-0.13207v-0.92387h0.13207v0.92387zm-0.2752 0h-0.13207v-0.92387h0.13207v0.92387zm-0.2756 0h-0.13207v-0.92387h0.13207v0.92387zm-0.2756 0h-0.13207v-0.92387h0.13207v0.92387zm-0.2754 0h-0.13207v-0.92387h0.13207v0.92387zm-0.2754 0h-0.13207v-0.92387h0.13207v0.92387zm-0.2753 0h-0.13207v-0.92387h0.13207v0.92387zm-0.2757 0h-0.13207v-0.92387h0.13207v0.92387zm-0.2754 0h-0.13207v-0.92387h0.13207v0.92387zm-0.2753 0h-0.13207v-0.92387h0.13207v0.92387zm-0.2753 0h-0.13207v-0.92387h0.13207v0.92387zm-0.2758 0h-0.13207v-0.92387h0.13207v0.92387zm-0.2753 0h-0.13207v-0.92387h0.13207v0.92387zm-0.4075-0.19687v-0.72699h0.13207v0.85942zm-0.27536-0.27713v-0.44984h0.13172v0.58262zm15.627-30.751 0.55108 1.4874-2.0387-1.4872h-7.5573v13.65h3.0645l0.9386-1.4872 0.54864 1.4872 1.5713 4.2584 0.549 1.4872-2.0362-1.4872h-4.6358v7.6123h6.5304l0.93612-1.4872 0.55108 1.4872 1.5783 4.2584h-15.342l1.4876-1.4872v-11.026l-1.4876-1.4872 1.4876-1.4872v-17.063l-1.4876-1.4872h13.212zm11.15 1.452h-0.13207v-0.92387h0.13207v0.92387zm-0.2752 0h-0.13207v-0.92387h0.13207v0.92387zm-0.2752 0h-0.13207v-0.92387h0.13207v0.92387zm-0.276 0h-0.13207v-0.92387h0.13207v0.92387zm-0.2752 0h-0.13207v-0.92387h0.13207v0.92387zm1.3112 0h-0.066211v-0.92387h0.066211v0.92387zm-1.5864 0h-0.13207v-0.92387h0.13207v0.92387zm-0.2756 0h-0.13207v-0.92387h0.13207v0.92387zm-0.9584 0.141v-1.0654h0.13172v0.96942zm0.6828-0.141h-0.13207v-0.92387h0.13207v0.92387zm-0.2756 0h-0.13207v-0.92387h0.13207v0.92387zm-0.6828 0.343v-1.2665h0.13172v1.1702zm-0.2756 0.2v-1.4672h0.13207v1.3709zm-0.2753-1.393 0.1016-0.074256h0.030469v1.572l-0.13207 0.096328v-1.5941zm-0.2754 1.795v-1.5941l0.13172-0.095976v1.5937zm-0.2754 0.201v-1.5937l0.13172-0.096328v1.5941zm-0.2757 0.201v-1.5941l0.13207-0.096328v1.5941zm-0.2754 0.201v-1.5937l0.13207-0.096328v1.5937zm-0.2754 0.201v-1.5941l0.13172-0.096328v1.5941zm-0.2754 0.201v-1.5941l0.13172-0.095976v1.5937zm-0.2756 0.2v-1.5937l0.13207-0.096328v1.5941zm-0.2754 0.201v-1.5941l0.13207-0.096328v1.5941zm-0.2754-0.121v-1.2714l0.13172-0.096328v1.5005zm-0.2754-0.277v-0.79356l0.13172-0.096328v1.0227zm-0.27572-0.277v-0.3157l0.13207-0.095976v0.54445zm18.456-1.247v-1.5573l0.13207 0.35629v1.5573zm-0.551-1.488v-1.5573l0.13207 0.35629v1.5573zm-0.275-0.744v-1.5573l0.13207 0.35664v1.5573zm1.652 2.907 0.13207 0.35629v0.69789l-0.13207-0.096328v-0.95785zm-0.275 0.757v-1.5012l0.13207 0.35664v1.2406zm-0.276-0.688v-1.5573l0.13207 0.35664v1.7839l-0.13207-0.096328v-0.25363l0.1184 0.086172zm-0.551-1.488v-1.5573l0.13207 0.35664v1.5573zm-0.694-3.432v1.5573l-0.13207-0.35664v-1.5573zm-0.275-0.744v1.5573l-0.13207-0.35629v-1.5573zm-0.275-0.744v1.5573l-0.13207-0.35664v-1.3832l0.10266 0.10336zm-0.276-0.327v1.14l-0.13207-0.35629v-0.91617zm-0.276-0.277v0.67301l-0.13207-0.35664v-0.44914zm-1.377 5.839h-0.13207v-0.92387h0.13207v0.92387zm-0.275 0h-0.13207v-0.92387h0.13207v0.92387zm-0.276 0h-0.13207v-0.92387h0.13207v0.92387zm-0.275 0h-0.13207v-0.92387h0.13207v0.92387zm-0.276 0h-0.13172v-0.92387h0.13172v0.92387zm-0.275 0h-0.13207v-0.92387h0.13207v0.92387zm-0.276 0h-0.13207v-0.92387h0.13207v0.92387zm-0.275 0h-0.13207v-0.92387h0.13207v0.92387zm-0.827 12.885-0.13172-0.13207v-13.677h0.13172v13.809zm4-12.885v-0.40254l0.13207 0.096328v0.30621h-0.13207zm-0.275 0v-0.60363l0.13207 0.096328v0.5073h-0.13207zm-0.275 0v-0.80438l0.13172 0.095976v0.7084h-0.13172zm-0.276-0.924h0.11176l0.020312 0.015078v0.90914h-0.13207v-0.92422zm-0.143 0.924h-0.13207v-0.92387h0.13207v0.92387zm-2.755 13.161-0.13172-0.13172v-13.953h0.13172v14.085zm0.276 0.275-0.13207-0.13207v-14.228h0.13207v14.36zm1.52 2.098v-0.57316l0.13207 0.13277v0.30867zm-0.275 0.276v-1.1256l0.13207 0.13277v0.86078zm-0.276 0.275v-1.6781l0.13207 0.13277v1.4136zm-0.275 0.276v-1.8421l0.13172-0.13207v1.8425zm-0.276 0.275v-1.8421l0.13207-0.13207v1.8425zm-0.275 0.275v-1.8421l0.13207-0.13207v1.8425zm-0.143 10.525-0.13207-0.13207v-11.96l0.13207-0.13207v12.224zm-0.276-0.2754-0.13172-0.13207v-11.409l0.13172-0.13207v11.673zm-0.276-0.2757-0.13172-0.13207v-10.858l0.13172-0.13207v11.122zm2.348 2.8879v-0.53777l0.13172 0.13277v0.405h-0.13172zm-0.276 0v-0.81488l0.13207 0.13277v0.68211h-0.13207zm-0.143 3.906e-5h-0.13207v-0.92387h0.13207v0.92387zm-0.276 0h-0.13172v-0.92387h0.13172v0.92387zm-0.275 0h-0.13207v-0.92387h0.13207v0.92387zm-0.276 0h-0.13207v-0.92387h0.13207v0.92387zm-0.275 0h-0.13207v-0.92387h0.13207v0.92387zm-0.275 0h-0.13207v-0.92387h0.13207v0.92387zm-0.276 0h-0.13207v-0.92387h0.13207v0.92387zm-0.275 0h-0.13207v-0.92387h0.13207v0.92387zm-0.275 0h-0.13207v-0.92387h0.13207v0.92387zm-0.276 0h-0.13172v-0.92387h0.13172v0.92387zm-0.275 0h-0.13207v-0.92387h0.13207v0.92387zm-0.276 0h-0.13207v-0.92387h0.13207v0.92387zm-0.275 0h-0.13207v-0.92387h0.13207v0.92387zm-0.276 0h-0.13207v-0.92387h0.13207v0.92387zm-0.275 0h-0.13207v-0.92387h0.13207v0.92387zm-0.275 0h-0.13207v-0.92387h0.13207v0.92387zm-0.276 0h-0.13207v-0.92387h0.13207v0.92387zm-0.276 0h-0.13172v-0.92387h0.13172v0.92387zm-0.275 0h-0.13207v-0.92387h0.13207v0.92387zm-0.2754 0h-0.13207v-0.92387h0.13207v0.92387zm-0.2756 0h-0.13207v-0.92387h0.13207v0.92387zm-0.2752 0h-0.13207v-0.92387h0.13207v0.92387zm-0.2756 0h-0.13207v-0.92387h0.13207v0.92387zm-0.2752 0h-0.13207v-0.92387h0.13207v0.92387zm-0.2756 0h-0.13207v-0.92387h0.13207v0.92387zm-0.2752 0h-0.13207v-0.92387h0.13207v0.92387zm-0.2756 0h-0.13207v-0.92387h0.13207v0.92387zm-0.2756 0h-0.13207v-0.92387h0.13207v0.92387zm-0.2752 0h-0.13207v-0.92387h0.13207v0.92387zm-0.2756 0h-0.13207v-0.92387h0.13207v0.92387zm-0.2752 0h-0.13207v-0.92387h0.13207v0.92387zm-0.2756 0h-0.13207v-0.92387h0.13207v0.92387zm-0.4076-0.12086v-0.80301h0.13207v0.92387h-0.011562zm-0.2756-0.27715v-0.52586h0.13172v0.65863zm10.663-35.086 1.5779 4.2584 0.55108 1.4872-2.0383-1.4872h-4.2469v14.292l1.4872 1.4872-1.4872 1.4872v11.026l1.4872 1.4872h-7.2329l1.4872-1.4872v-11.026l-1.4872-1.4872 1.4872-1.4872v-14.292h-4.2465l-2.0383 1.4872 0.55108-1.4872 1.578-4.2584h12.57zm13.717 5.724c-0.044844 0.0045704-0.08828 0.012305-0.13207 0.019648v-0.86012c0.0459 0.013672 0.087928 0.029102 0.13207 0.046952v0.79352zm-0.276 0.046c-0.04414 0.010156-0.088632 0.02-0.13207 0.032617v-0.98692c0.04414 0.0076952 0.08828 0.015039 0.13207 0.025195v0.9291zm-0.4072 0.134v-1.1169c0.043788 0 0.088632 0.0062892 0.13207 0.010508v1.0538c-0.044844 0.016133-0.088984 0.033633-0.13207 0.05254zm-0.1436 0.068c-0.045548 0.023828-0.088984 0.05082-0.13207 0.077812v-1.2441c0.043788-0.0052736 0.087576-0.0084376 0.13207-0.01125v1.1775zm-0.2756 0.176c-0.045196 0.033633-0.089336 0.068632-0.13207 0.10578v-1.3972c0.043788-0.010859 0.087228-0.021719 0.13207-0.029766v1.3212zm-0.5508 0.6c-0.049064 0.079532-0.093868 0.16188-0.13207 0.2484v-1.9245c0.043088-0.023828 0.087228-0.0459 0.13207-0.066912v1.743zm2.4792-0.926c-0.043788-0.015078-0.086876-0.031172-0.13207-0.043436v-0.39801c0.0459 0.04414 0.09004 0.09074 0.13207 0.1391v0.30234zm-0.4076-0.094v-0.57285c0.012266 0.0083984 0.024883 0.016445 0.037148 0.025195 0.03293 0.023476 0.063752 0.049064 0.094924 0.073944v0.49504c-0.043788-0.0083984-0.087576-0.015742-0.13207-0.021328zm-0.1432-0.014c-0.045196-0.0024609-0.086876-3.5156e-4 -0.13207 0.0017578v-0.72277c0.044492 0.022774 0.088632 0.045196 0.13207 0.069728v0.65129zm-1.6528 0.676c-0.046252 0.048712-0.090392 0.09922-0.13207 0.15176v-1.5997c0.043436-0.016836 0.087228-0.032617 0.13207-0.04664v1.4946zm-0.5884 1.551c-3.5156e-4 0.49576-3.9062e-4 0.99184-3.9062e-4 1.4872 0 0.58016-3.5156e-4 1.16-3.5156e-4 1.7401-3.5156e-4 0.41376 0.038203 0.8212 0.038203 1.2353l-0.13207-0.11738v-7.0336c0.043088-0.033281 0.086524-0.06586 0.13207-0.095976v1.6284c0 0.2123 0.010156 0.42708 0 0.63904-0.0083984 0.17238-0.037461 0.34301-0.037461 0.5168zm-0.238 4.211c-0.045196-0.045548-0.090392-0.09004-0.13207-0.1391v-6.5035c0.042032-0.046252 0.08582-0.091092 0.13207-0.13383v6.7764zm-0.4076-0.539v-5.7246c0.039922-0.070428 0.084412-0.13805 0.13207-0.2032v6.143c-0.048008-0.069024-0.0925-0.14086-0.13207-0.21512zm-0.274-1.074c0-0.17062-3.9062e-5 -0.3416-3.9062e-5 -0.5126 3.5156e-4 -0.70348 3.5156e-4 -1.407 7.0312e-4 -2.1104 3.5156e-4 -0.55844-0.0641-1.18 0.13-1.7128v5.0856c-0.087576-0.23684-0.13066-0.49716-0.13066-0.74976zm9.6394-2.05v-4.1372c0.045548 0.085116 0.09004 0.17129 0.13207 0.25852v3.8433zm-0.275-3.404-3.9062e-5 -1.2045c0.045196 0.071484 0.089336 0.14332 0.13207 0.21656v1.627c-0.03957-0.21442-0.07914-0.4274-0.13203-0.63904zm-0.276-0.853v-0.75785c0.044844 0.06168 0.088984 0.12336 0.13207 0.18641v0.93894c-0.042736-0.12332-0.083712-0.24629-0.13207-0.3675zm-0.143-0.948v0.60438c-0.043088-0.093908-0.084412-0.18781-0.13207-0.27961v-0.49258c0.045196 0.055 0.08828 0.11176 0.13207 0.16781zm1.245 5.058-3.9062e-5 -2.6616c0.050116 0.1643 0.093204 0.33176 0.13211 0.50064v2.1255zm-0.275 0.074v-3.4898c0.0466 0.10859 0.09074 0.21894 0.13207 0.33035v3.124zm-0.551 0.147v-1.1695l0.13207-0.035039v1.1691zm-0.276 0.073v-1.1695l0.13172-0.035039v1.1691zm-0.143-1.13v1.1691l-0.13207 0.035391v-1.1695zm-0.275 0.073v1.1691l-0.13207 0.035391v-1.1695zm-0.276 1.243-0.13207 0.035391v-1.1695l0.13207-0.035039v1.1691zm-0.276 0.073-0.13172 0.035391v-1.1695l0.13172-0.035039v1.1691zm-0.275 0.074-0.13207 0.035391v-1.1695l0.13207-0.035039v1.1691zm-0.275 0.073-0.13207 0.035391v-1.1695l0.13207-0.035039v1.1691zm-0.276 0.074-0.13207 0.035391v-1.1695l0.13207-0.035039v1.1691zm-0.275 0.074-0.13207 0.035391v-1.1695l0.13207-0.035039v1.1691zm-0.276 0.073-0.13207 0.035391v-1.1695l0.13207-0.035391v1.1695zm-0.275 0.074-0.13207 0.035391v-1.1695l0.13207-0.035391v1.1695zm-0.276 0.073-0.13207 0.035391v-1.1695l0.13207-0.035391v1.1695zm-0.275-1.095v1.1695l-0.13207 0.035039v-1.1691zm-0.275 0.073v1.1695l-0.13207 0.035039v-1.1691zm-0.276 0.074v1.1695l-0.13207 0.035039v-1.1691zm-0.275 1.102-0.13207-0.13277v-0.86047l0.13207-0.035391v1.0286zm-0.408-0.41v-0.50976l0.13207-0.035391v0.67793zm1.102 7.544v-2.1914l0.13207 0.13277v2.176zm-0.276-0.245v-2.2233l0.13207 0.13277v2.2079zm-0.275-0.245v-2.2552l0.13207 0.13277v2.2398zm-3.03 4.427 0.13207 0.1177v0.31988l-0.13207 0.0076952v-0.44527zm-0.2756-0.245 0.13207 0.11738v0.58121l-0.13207 0.0076952v-0.70629zm-0.2752-0.245 0.13172 0.11738v0.84258l-0.13172 0.0076952v-0.96766zm-0.276 6e-3 0.13207-0.0076952v0.97781l-0.13207 0.0076952v-0.97781zm-0.2752 0.016 0.13207-0.0076952v0.97781l-0.13207 0.0080468v-0.97816zm-0.1436 9e-3v0.97781l-0.13207 0.0076952v-0.97781zm-0.2756 0.016v0.97781l-0.13172 0.0076952v-0.97781zm-0.2752 0.016v0.97781l-0.13207 0.0076952v-0.97781zm-0.2756 0.016v0.94976l-0.13207-0.13277v-0.8093zm-0.4072 0.024 0.13207-0.0077344v0.65656l-0.13207-0.13277v-0.51606zm1.1016 8.5496 3.5156e-4 -2.6815 0.088984 0.089688c0 0.34473-3.5156e-4 0.6898-3.5156e-4 1.0345-3.5156e-4 0.3952-0.033633 0.81212 0.043088 1.2017v0.44984c-0.045196-0.029414-0.088984-0.060936-0.13207-0.09422zm-0.2752-0.2564v-2.7015l0.13207 0.13277v2.7036c-0.0466-0.043088-0.089336-0.087576-0.13207-0.13488zm-0.2756-0.3796v-2.5992l0.13207 0.13277v2.6696c-0.048008-0.065508-0.092148-0.13312-0.13207-0.2032zm-0.2756-0.9792v-1.8971l0.13207 0.13277v2.4349c-0.07918-0.21266-0.12402-0.43828-0.13207-0.67056zm10.509-0.3028c0 0.64044 0.025547 1.2904-0.041016 1.928v-5.2349c0.038203 0.36297 0.04172 0.72592 0.04172 1.0903-3.5156e-4 0.73888-3.5156e-4 1.4777-7.0312e-4 2.2166zm-0.317 3.2944 3.9062e-5 -7.9716c0.05078 0.16746 0.093516 0.33774 0.13207 0.50872v6.9582c-0.038555 0.17062-0.081992 0.33914-0.13211 0.50484zm-0.826-8.553v-1.2311c0.045196 0.071484 0.089336 0.14367 0.13207 0.21688v1.6561c-0.035742-0.21617-0.079884-0.42916-0.13207-0.64184zm-0.276-0.871v-0.77035c0.045196 0.062344 0.088984 0.12539 0.13207 0.18879v0.95293c-0.040976-0.12508-0.084764-0.24875-0.13207-0.37137zm-0.275-0.627v-0.50024c0.045196 0.055 0.08828 0.11141 0.13207 0.16781v0.61379c-0.04168-0.09496-0.086524-0.18816-0.13207-0.28137zm-0.276-0.507v-0.30871c0.044844 0.048712 0.088632 0.098124 0.13207 0.14789v0.39344c-0.043436-0.078124-0.086172-0.15625-0.13207-0.23262zm1.377 11.323v-9.4947c0.0466 0.11 0.09074 0.22141 0.13207 0.33352v8.8287c-0.041328 0.11211-0.085468 0.22281-0.13207 0.33246zm-0.275 0.5741v-10.65c0.046252 0.086876 0.089688 0.1748 0.13207 0.26344v10.129c-0.042032 0.087228-0.086876 0.1727-0.13207 0.25781zm-0.275 0.4748v-3.0704c0.053244-0.21195 0.097384-0.42708 0.13207-0.64572v3.4979c-0.043088 0.073556-0.086876 0.14644-0.13207 0.21828zm-0.276 0.4075v-2.6125c0.047304-0.12191 0.091444-0.24524 0.13207-0.36996v2.7971c-0.042736 0.062696-0.087576 0.12402-0.13207 0.18535zm-0.275 0.3591v-2.3448c0.046252-0.092852 0.089688-0.18676 0.13207-0.28172v2.4587c-0.043788 0.056408-0.086876 0.11281-0.13207 0.16781zm-0.276 0.3164v-2.1561c0.045196-0.075664 0.089688-0.15168 0.13207-0.2291v2.2359c-0.043788 0.050116-0.087228 0.10024-0.13207 0.1493zm-0.275 0.283v-2.012c0.045196-0.065156 0.088984-0.13137 0.13207-0.19793v2.0772c-0.043788 0.044492-0.087576 0.088984-0.13207 0.13277zm-0.276 0.2564v-1.8971c0.044492-0.056408 0.089336-0.11246 0.13207-0.16992v1.9476c-0.043436 0.040272-0.087576 0.080196-0.13207 0.11945zm-0.275 0.2323v-1.7994c0.044492-0.050468 0.088632-0.10094 0.13207-0.15242v1.8439c-0.043436 0.036445-0.087576 0.072188-0.13207 0.10793zm-0.275 0.2113v-1.7149c0.044844-0.045196 0.088632-0.091796 0.13207-0.1384v1.7549c-0.043788 0.033281-0.087928 0.066212-0.13207 0.098436zm-0.276 0.192v-1.6414c0.044844-0.040976 0.08828-0.083712 0.13207-0.12574v1.6771c-0.043788 0.030469-0.087576 0.060588-0.13207 0.09zm-0.276 0.1748v-1.5759c0.044844-0.037148 0.08828-0.076056 0.13207-0.11426v1.6074c-0.04414 0.027695-0.087576 0.055744-0.13207 0.082736zm-0.275 0.15874v-1.5167c0.044844-0.033633 0.08828-0.069024 0.13207-0.10371v1.5443c-0.04414 0.025234-0.087576 0.051876-0.13207 0.076056zm-0.275 0.14188v-1.4613c0.044492-0.030469 0.08828-0.062344 0.13207-0.093868v1.4876c-0.04414 0.022774-0.087576 0.045548-0.13207 0.067616zm-0.276 0.12784v-1.4098c0.044492-0.027695 0.08828-0.056408 0.13207-0.084764v1.4346c-0.043788 0.020664-0.087928 0.040272-0.13207 0.059884zm-0.276 0.11492v-1.3618c0.044492-0.024883 0.08828-0.050116 0.13207-0.076056v1.3856c-0.043788 0.018203-0.08828 0.034688-0.13207 0.052188zm-0.275 0.10304v-1.3173c0.04414-0.022422 0.088632-0.04414 0.13207-0.067616v1.3387c-0.043788 0.016133-0.087928 0.030859-0.13207 0.046288zm-0.275 0.09177v-1.2757c0.04414-0.020312 0.088632-0.038867 0.13207-0.059884v1.2924c-0.04414 0.014726-0.087928 0.029453-0.13207 0.043124zm-0.276 0.07808v-1.2333c0.04414-0.018203 0.08828-0.036406 0.13207-0.055312v1.2511c-0.04414 0.012266-0.087928 0.025586-0.13207 0.0375zm-0.276 0.06614v-1.1912c0.044492-0.016133 0.087928-0.034336 0.13207-0.051484v1.2122c-0.043788 0.010508-0.087928 0.020664-0.13207 0.030469zm-0.2748 0.05605v-1.1536c0.044492-0.014375 0.08828-0.029805 0.13207-0.044884v1.1751c-0.043788 0.00875-0.08828 0.015391-0.13207 0.023438zm-0.2756 0.04664v-1.1189c0.04414-0.012266 0.08828-0.024531 0.13207-0.0375v1.1358c-0.04414 0.006992-0.087928 0.014336-0.13207 0.020625zm-0.2752 0.03508v-1.083c0.04414-0.010508 0.08828-0.019258 0.13207-0.030469v1.0966c-0.04414 0.0056252-0.087928 0.011914-0.13207 0.016836zm-0.2756 0.023086v-1.0455c0.044492-0.00875 0.08828-0.018203 0.13207-0.027656v1.0629c-0.043788 0.0038672-0.087928 0.0070312-0.13207 0.010195zm-0.2756 0.014336v-1.0101c0.044492-0.0073436 0.087928-0.016094 0.13207-0.023789v1.0304c-0.043788 0.0024609-0.08828 0.0021094-0.13207 0.0035156zm-0.2752 0.0059375v-0.97891c0.04414-0.0052736 0.08828-0.010859 0.13207-0.016797v0.99359c-0.04414 7.0312e-4 -0.087928 0.0021094-0.13207 0.0021094zm-0.2756-0.0070311v-0.94379c0.04414-0.0038672 0.08828-0.0056252 0.13207-0.010195v0.9575c-0.04414-0.0010547-0.08828-0.0017578-0.13207-0.0035156zm-0.2756-0.016758v-0.9084c0.044492-0.0021094 0.08828-0.0052736 0.13207-0.008086v0.92668c-0.04414-0.0028125-0.087928-0.0066796-0.13207-0.010195zm-0.2752-0.025506v-0.87547c0.04414-7.0312e-4 0.08828-0.0024609 0.13207-0.0035156v0.89375c-0.044492-0.0045704-0.08828-0.0098436-0.13207-0.014766zm-0.2756-0.035004v-0.84438c0.04414 0.0014062 0.087928 0.0031641 0.13207 0.0035156v0.85766c-0.04414-0.0059376-0.08828-0.010156-0.13207-0.016797zm-0.2752-0.0491v-0.80726c0.04414 0.0038672 0.087928 0.006328 0.13207 0.0084376v0.82262c-0.04414-0.0076952-0.08828-0.015391-0.13207-0.023789zm-0.276-0.05859v-0.77012c0.043788 0.0045704 0.087928 0.0070312 0.13207 0.010195v0.79039c-0.044492-0.0091016-0.087928-0.020312-0.13207-0.030469zm-0.2752-0.06836v-0.73644c0.04414 0.0052736 0.087928 0.011211 0.13207 0.016836v0.75465c-0.044492-0.010859-0.08828-0.023125-0.13207-0.035039zm-0.2756-0.07918v-0.70133c0.04414 0.0080468 0.08828 0.016094 0.13207 0.023789v0.71574c-0.04414-0.012969-0.08828-0.024531-0.13207-0.038203zm-0.2752-0.09347v-0.66141c0.04414 0.010508 0.087576 0.019609 0.13207 0.028008v0.67828c-0.04414-0.014726-0.08828-0.029102-0.13207-0.044884zm-0.2756-0.10576v-0.62012c0.043788 0.011211 0.087928 0.021016 0.13207 0.03082v0.64148c-0.044492-0.016836-0.08828-0.034688-0.13207-0.052188zm-0.2756-0.11772v-0.58055c0.04414 0.012617 0.08828 0.025234 0.13207 0.037852v0.60258c-0.044492-0.018906-0.087928-0.039922-0.13207-0.059884zm-0.2752-0.13072v-0.53852c0.04414 0.014726 0.08828 0.029805 0.13207 0.044884v0.55914c-0.044492-0.021367-0.08828-0.043436-0.13207-0.065508zm-0.276-0.14436v-0.4943c0.043788 0.0175 0.087576 0.035703 0.13207 0.051484v0.51359c-0.04414-0.023476-0.08828-0.0466-0.13207-0.07078zm-0.2752-0.15968v-0.4473c0.04414 0.019961 0.087228 0.038164 0.13207 0.055664v0.4684c-0.04414-0.025586-0.088632-0.050116-0.13207-0.076756zm-0.2756-0.1776v-0.39484c0.043788 0.021016 0.087928 0.040624 0.13207 0.060236v0.41973c-0.04414-0.028359-0.088632-0.056056-0.13207-0.085116zm-0.2752-0.1955v-0.34125c0.04414 0.022774 0.087928 0.045548 0.13207 0.067968v0.3675c-0.04414-0.031172-0.088632-0.061992-0.13207-0.09422zm3.5224-34.019c3.8254 0 6.9268 3.1012 6.9276 6.9268l-4.2584 1.1376v-1.0255c0-1.4609-1.126-2.7355-2.5866-2.7793-1.5114-0.045196-2.7509 1.1663-2.7509 2.6676v3.6128c0 0.79528 0.3402 1.5531 0.93472 2.0818l2.0436 1.8176 2.0937-0.12262 0.12262 2.0937 2.0775 1.8474c1.4778 1.3145 2.3235 3.198 2.3235 5.176v3.6779c0 3.8251-3.1009 6.9264-6.9264 6.9264h-7.0312e-4c-3.8258 0-6.9272-3.1012-6.9272-6.9272l4.2584-1.1376v1.1376c0 1.5839 1.38 2.8455 3.0032 2.6483 1.3544-0.1643 2.3344-1.3852 2.3344-2.7495v-3.5119c0-0.79528-0.3402-1.5531-0.93472-2.0818l-2.0436-1.8172-2.0937 0.12262-0.12262-2.0937-2.0775-1.8474c-1.4781-1.3145-2.3239-3.198-2.3239-5.176v-3.6772c0-3.8258 3.1012-6.9272 6.9272-6.9272zm29.596 5.735 3.5156e-4 -0.85872c0.00875 0.0024609 0.017852 0.0042188 0.026602 0.0070312 0.035742 0.011211 0.069728 0.026289 0.10512 0.038555v0.79738c-0.044492 0.0035156-0.08828 0.0094532-0.13207 0.015742zm-0.1432 0.024c-0.044844 0.0098048-0.08828 0.021758-0.13207 0.034375v-0.97816c0.044844 0.0059376 0.088632 0.011875 0.13207 0.023789v0.92zm-0.2756-0.963v1.044c-0.044492 0.016133-0.088984 0.032617-0.13207 0.051524v-1.1022c0.044492 0.0010547 0.088632 0.0028125 0.13207 0.0066796zm-0.5508 0.023v1.3187c-0.045548 0.033984-0.089688 0.069376-0.13207 0.10688v-1.3989c0.043436-0.010508 0.087576-0.018906 0.13207-0.026602zm-0.5508 0.174 3.9062e-5 1.7521c-0.049064 0.080936-0.093908 0.16398-0.13211 0.25121v-1.9367c0.043088-0.02418 0.087228-0.045548 0.13207-0.066564zm2.4796 0.823c-0.04414-0.014375-0.086876-0.030117-0.13207-0.04168v-0.43024c0.0466 0.042032 0.089688 0.084064 0.13207 0.12996v0.34195zm-0.408-0.091 3.5156e-4 -0.59416c0.012266 0.0073436 0.024883 0.014336 0.036797 0.022383 0.032578 0.02207 0.063048 0.047656 0.094924 0.071132v0.52274c-0.043788-0.0076952-0.087228-0.016797-0.13207-0.02207zm-0.144-9e-3c-0.044492-0.0021094-0.087228-0.0048828-0.13207-0.0045312v-0.73152c0.043788 0.021719 0.088984 0.040624 0.13207 0.063752v0.6723zm-1.1016-0.925v1.1702c-0.045196 0.02418-0.088632 0.05082-0.13207 0.078164v-1.2416c0.043436-0.0042188 0.087928-0.004922 0.13207-0.0066796zm-0.5508 0.092v1.5002c-0.0466 0.049064-0.090392 0.1002-0.13207 0.15344v-1.6053c0.043788-0.016797 0.087228-0.034297 0.13207-0.04832zm-0.59 14.365-0.093164-0.092852v-13.912c0.043088-0.033633 0.086524-0.066912 0.13207-0.097384v0.13242 1.7471c0 0.30375-0.035039 0.60224-0.035742 0.90456-0.0014062 0.73256-3.5156e-4 1.4652-7.0312e-4 2.1977-3.5156e-4 1.2812-7.0312e-4 2.5621-0.0010547 3.8429-3.5156e-4 1.2174-7.0312e-4 2.4346-0.0010547 3.652 0 0.54164-3.5156e-4 1.0836-3.5156e-4 1.6253zm-0.2364-0.237-0.13207-0.13207v-13.377c0.042032-0.046952 0.086172-0.092148 0.13207-0.13524v13.645zm-0.2752-0.275-0.13207-0.13207v-12.718c0.039922-0.071132 0.084764-0.13945 0.13207-0.20531v13.056zm-0.4064-1.87c3.5156e-4 -2.1024 0.0010547-4.2048 0.0021094-6.3072 3.5156e-4 -0.8958 3.5156e-4 -1.792 7.0312e-4 -2.6878 0-0.54376-0.058516-1.1477 0.1282-1.6662v12.256l-0.13137-0.13137c0-0.48768 3.5156e-4 -0.97576 3.5156e-4 -1.4634zm9.2214-13.209v0.93644c-0.042736-0.12332-0.084064-0.24558-0.13207-0.3668v-0.75606c0.044844 0.06168 0.088984 0.12336 0.13207 0.18641zm-0.276-0.376v0.60332c-0.042736-0.093908-0.084412-0.18781-0.13207-0.27926v-0.49152c0.045196 0.054648 0.08828 0.11141 0.13207 0.16746zm1.569 4.568 3.9062e-5 0.40536-0.04836 0.012969v-1.2584c0.03082 0.27606 0.04832 0.55596 0.04832 0.84012zm-0.192-1.676-3.9062e-5 2.1329-0.13207 0.035391v-2.6675c0.050116 0.16394 0.093204 0.3307 0.13211 0.4992zm-0.275-0.921v3.1279l-0.13207 0.035391v-3.4933c0.0466 0.10859 0.09074 0.21859 0.13207 0.33zm-0.276-0.645v3.8468l-0.13207 0.035391v-4.1408c0.045548 0.085116 0.089688 0.17129 0.13207 0.25852zm-0.275 2.751v1.1691l-0.13207 0.035391v-1.1691zm0-3.265v1.621c-0.03957-0.21371-0.078828-0.426-0.13207-0.63692v-1.2006c0.045196 0.071484 0.089336 0.14367 0.13207 0.21656zm-0.276 3.338v1.1695l-0.13207 0.035039v-1.1691zm-0.275 1.243-0.13207 0.035391v-1.1691l0.13207-0.035391v1.1691zm-0.275 0.073-0.13172 0.035391v-1.1691l0.13172-0.035391v1.1691zm-0.276 0.074-0.13207 0.035391v-1.1691l0.13207-0.035391v1.1691zm-0.275 0.074-0.13207 0.035391v-1.1695l0.13207-0.035039v1.1691zm-0.276 0.073-0.13207 0.035391v-1.1695l0.13207-0.035039v1.1691zm-0.275 0.074-0.13172 0.035391v-1.1695l0.13172-0.035039v1.1691zm-0.276 0.073-0.13207 0.035391v-1.1695l0.13207-0.035039v1.1691zm-0.275 0.074-0.13207 0.035391v-1.1695l0.13207-0.035039v1.1691zm-0.275 0.074-0.13207 0.035391v-1.1695l0.13207-0.035039v1.1691zm-0.276 0.073-0.13172 0.035391v-1.1695l0.13172-0.035039v1.1691zm-0.276 0.074-0.13207 0.035391v-1.1695l0.13207-0.035039v1.1691zm-0.275 0.073-0.13207 0.035391v-1.1695l0.13207-0.035039v1.1691zm-0.275 0.074-0.13207 0.035391v-1.1695l0.13207-0.035039v1.1691zm-0.276 0.074-0.13172 0.035391v-1.1695l0.13172-0.035039v1.1691zm-0.275-0.07-0.13207-0.13277v-0.85836l0.13207-0.035039v1.0262zm-0.275-0.276-0.13207-0.13277v-0.50801l0.13207-0.035391v0.67617zm-2.6116 12.094v-0.84328l0.13207 0.13277v0.57879zm-0.2756 0.276v-1.3954l0.13207 0.13242v1.1312zm-0.2756 0.275v-1.8421l0.052892-0.052892 0.07918 0.079884v1.6834zm-0.2752 0.275v-1.8421l0.13207-0.13207v1.8425zm-0.2756 0.276v-1.8421l0.13207-0.13207v1.8425zm-0.184 0.989c-3.5156e-4 1.0805-7.0312e-4 2.1606-7.0312e-4 3.241 0 0.38469-3.5156e-4 0.76936-3.5156e-4 1.1541-3.5156e-4 0.34266 0.04168 0.67932 0.04168 1.023-0.045196-0.029766-0.089688-0.060588-0.13207-0.093868v-7.8803l0.13207-0.13207v1.8425l-0.040272 0.040272c-3.5156e-4 0.26836-3.5156e-4 0.53672-3.5156e-4 0.80544zm-0.2348 5.2018c-0.0459-0.043088-0.09004-0.087928-0.13207-0.13453v-7.3478l0.13207-0.13207v7.6144zm-0.2756-0.3112c-0.049764-0.064804-0.089336-0.13453-0.13207-0.20391v-6.692l0.13207-0.13207v7.0279zm-0.2756-0.5156c-0.079884-0.22633-0.12715-0.4572-0.13207-0.69756v-5.4076l0.13207-0.13207v6.2372zm10.382-9.543-0.0045704 14.943-0.040624-0.040624v-14.948zm-0.19-0.19v14.949l-0.13207-0.13207v-14.949zm-0.275-0.277v14.95l-0.13207-0.13207v-14.951zm-0.275-0.278v14.951l-0.13172-0.13207v-14.952zm2.347 17.303 0.13207 0.13281v0.49082h-0.13207v-0.62363zm-0.275 0.62363v-0.90074l0.13172 0.13277v0.76797h-0.13172zm-0.144 0h-0.13207v-0.92387h0.13207v0.92387zm-0.276 0h-0.13207v-0.92387h0.13207v0.92387zm-0.275 0h-0.13207v-0.92387h0.13207v0.92387zm-0.275 0h-0.13207v-0.92387h0.13207v0.92387zm-0.276 0h-0.13207v-0.92387h0.13207v0.92387zm-0.275 0h-0.13207v-0.92387h0.13207v0.92387zm-0.276 0h-0.13207v-0.92387h0.13207v0.92387zm-0.275 0h-0.13207v-0.92387h0.13207v0.92387zm-0.276 0h-0.13207v-0.92387h0.13207v0.92387zm-0.275 0h-0.13207v-0.92387h0.13207v0.92387zm-0.275 0h-0.13207v-0.92387h0.13207v0.92387zm-0.276 0h-0.13207v-0.92387h0.13207v0.92387zm-0.276 0h-0.13207v-0.92387h0.13207v0.92387zm-0.275 0h-0.13207v-0.92387h0.13207v0.92387zm-0.275 0h-0.13207v-0.92387h0.13207v0.92387zm-0.276 0h-0.13207v-0.92387h0.13207v0.92387zm-0.275 0h-0.13207v-0.92387h0.13207v0.92387zm-0.275 0h-0.13207v-0.92387h0.13207v0.92387zm-0.276 0h-0.13207v-0.92387h0.13207v0.92387zm-0.275 0h-0.13207v-0.92387h0.13207v0.92387zm-0.276 0h-0.13207v-0.92387h0.13207v0.92387zm-0.407-0.25262v-0.67129h0.13207v0.80336zm-0.276-0.16397 7.8124e-5 -0.50728h0.13207v0.52797l-0.049064-0.048712c-0.027344 0.0098048-0.055392 0.018203-0.083088 0.028008zm-0.275 0.09042v-0.59774h0.13207v0.55566c-0.04414 0.014375-0.087928 0.028398-0.13207 0.042072zm-0.276 0.07914v-0.83699l0.13207 0.13207v0.66742c-0.04414 0.012617-0.087928 0.025938-0.13207 0.0375zm-0.275 0.06726v-1.18l0.13207 0.13207v1.0157c-0.04414 0.010859-0.087928 0.022422-0.13207 0.032226zm-0.276 0.05536v-1.1547c0.04414-0.014024 0.08828-0.029453 0.13207-0.044532v1.173c-0.04414 0.0091016-0.087928 0.018203-0.13207 0.02625zm-0.275 0.045232v-1.1179c0.04414-0.012266 0.08828-0.025234 0.13207-0.038203v1.1358c-0.04414 0.0073436-0.087928 0.013984-0.13207 0.020274zm-0.276 0.034764v-1.0816c0.04414-0.010508 0.08828-0.021016 0.13207-0.032226v1.0994c-0.04414 0.0056252-0.08828 0.009492-0.13207 0.014414zm-0.275 0.024493v-1.0465c0.04414-0.00875 0.08828-0.016797 0.13207-0.02625v1.0636c-0.043788 0.0038672-0.08828 0.0059764-0.13207 0.0091408zm-0.276 0.014687v-1.0122c0.04414-0.006992 0.08828-0.01293 0.13207-0.020625v1.0276c-0.04414 0.0021094-0.087928 0.0038672-0.13207 0.0052736zm-0.275 0.0048436v-0.97816c0.04414-0.0052736 0.08828-0.010898 0.13207-0.016836v0.99324c-0.04414 7.0312e-4 -0.087928 0.0017578-0.13207 0.0017578zm-0.2754-0.006992v-0.94238c0.04414-0.0035156 0.087928-0.0084376 0.13207-0.013008v0.95891c-0.04414-0.0010547-0.08828-0.0017578-0.13207-0.0035156zm-0.2756-0.016758v-0.9077c0.04414-0.0017578 0.08828-0.0056252 0.13207-0.0084376v0.92633c-0.044492-0.0028125-0.087928-0.0066796-0.13207-0.010195zm-0.2756-0.025506v-0.87547c0.04414-3.5156e-4 0.08828-0.0017578 0.13207-0.0028125v0.89305c-0.04414-0.0045704-0.08828-0.0098436-0.13207-0.014766zm-0.2756-0.035352v-0.84438c0.04414 0.0014062 0.087928 0.0031641 0.13207 0.0035156v0.85766c-0.04414-0.0059376-0.08828-0.010156-0.13207-0.016797zm-0.2752-0.048752v-0.80726c0.04414 0.0038672 0.087928 0.006328 0.13207 0.0084376v0.82262c-0.04414-0.0076952-0.08828-0.015391-0.13207-0.023789zm-0.2756-0.05859v-0.77012c0.043788 0.0045704 0.087928 0.0070312 0.13207 0.010195v0.79039c-0.044492-0.0091016-0.087928-0.020312-0.13207-0.030469zm-0.2752-0.06871v-0.73609c0.04414 0.0052736 0.087928 0.011211 0.13207 0.016836v0.75465c-0.044492-0.011211-0.08828-0.023476-0.13207-0.035391zm-0.2756-0.07918v-0.70133c0.04414 0.0076952 0.087928 0.016094 0.13207 0.023789v0.71574c-0.04414-0.012969-0.088632-0.024531-0.13207-0.038203zm-0.2756-0.09348v-0.66141c0.04414 0.010508 0.087576 0.019609 0.13207 0.028008v0.67828c-0.04414-0.014726-0.08828-0.029102-0.13207-0.044884zm-0.2756-0.10576v-0.61942c0.043788 0.011211 0.087928 0.020664 0.13207 0.030469v0.64113c-0.044492-0.016836-0.08828-0.034336-0.13207-0.052188zm-0.2752-0.11772v-0.5802c0.04414 0.012617 0.08828 0.025234 0.13207 0.037852v0.60223c-0.044492-0.018906-0.087928-0.039922-0.13207-0.059884zm-0.2756-0.13072v-0.53852c0.04414 0.014726 0.08828 0.029805 0.13207 0.044884v0.55914c-0.044492-0.021016-0.08828-0.043436-0.13207-0.065508zm-0.2756-0.14472v-0.49394c0.043788 0.0175 0.087576 0.035352 0.13207 0.051484v0.51324c-0.04414-0.023476-0.08828-0.0466-0.13207-0.07078zm-0.2752-0.15976v-0.44695c0.04414 0.019961 0.087228 0.038164 0.13207 0.055664v0.46805c-0.04414-0.025586-0.088632-0.050116-0.13207-0.076756zm-0.2756-0.1775v-0.39449c0.043436 0.021016 0.087928 0.040624 0.13207 0.060236v0.41938c-0.04414-0.028359-0.088632-0.056056-0.13207-0.085116zm-0.2756-0.1955v-0.3409c0.04414 0.022774 0.087928 0.045196 0.13207 0.067968v0.36715c-0.04414-0.031172-0.088632-0.061992-0.13207-0.09422zm6.1928-0.5136-3.125e-4 -0.0013672c-0.82156 0.34332-1.7226 0.53424-2.6686 0.53424-3.8258 0-6.9272-3.1012-6.9272-6.9272v-5.5856l-1.4872-1.4872 1.4872-1.4872v-11.623c0-3.8258 3.1012-6.9272 6.9272-6.9272s6.9272 3.1012 6.9272 6.9272l-4.2584 1.1376v-1.1376c0-1.4739-1.1947-2.6686-2.6686-2.6686s-2.6686 1.1947-2.6686 2.6686v11.623l1.4872 1.4872-1.4872 1.4872v5.5859c0 1.4739 1.1947 2.6686 2.6686 2.6686 1.4736 0 2.6682-1.1947 2.6686-2.6682v-7.7153l-1.4872-1.4872h5.7457v14.642l1.4872 1.4872h-5.2125zm18.79-27.778v-0.83004c0.04414 0.016133 0.08828 0.031914 0.13207 0.0484v0.77215c-0.044492 0.0021094-0.088632 0.0045704-0.13207 0.009492zm-0.2752-0.901c0.011914 0.0017578 0.023828 0.0028125 0.036094 0.0056252 0.032226 0.0066408 0.063752 0.017148 0.095976 0.024844v0.8927c-0.044844 0.0083984-0.08828 0.018906-0.13207 0.029766v-0.95293zm-0.276 1.041v-1.0738c0.044492 0.0024609 0.08828 0.0028125 0.13207 0.010156v1.0153c-0.044844 0.014726-0.088632 0.030859-0.13207 0.04836zm-0.2752 0.135v-1.2076c0.043788-0.0031641 0.087576-0.006328 0.13207-0.0066796v1.1439c-0.044844 0.02207-0.088984 0.045196-0.13207 0.070428zm-0.2756 0.189v-1.3604c0.043436-0.0091016 0.087928-0.014024 0.13207-0.020312v1.2819c-0.045196 0.031524-0.089336 0.0641-0.13207 0.098788zm-0.2752 0.269v-1.5517c0.043436-0.01543 0.087576-0.029102 0.13207-0.04172v1.4522c-0.046252 0.045196-0.09004 0.092148-0.13207 0.14121zm-0.2756 0.408v-1.8411c0.043436-0.022422 0.087228-0.04414 0.13207-0.063752v1.6823c-0.048712 0.071132-0.092148 0.14574-0.13207 0.22246zm2.2034-1.133v-0.56234c0.04414 0.03293 0.089336 0.064804 0.13207 0.09914v0.4877c-0.043788-0.0091016-0.087576-0.018203-0.13207-0.024492zm-0.275-0.022v-0.70207c0.0466 0.021719 0.08828 0.043436 0.13207 0.071132v0.63902c-0.043788-0.0031641-0.087576-0.0073828-0.13207-0.008086zm-2.204 23.125-3.5156e-4 -23.641c0.042736-0.031172 0.086876-0.060588 0.13207-0.088632v2.1021c-0.066212 0.21125-0.095272 0.42812-0.097736 0.64884-0.00875 0.7806-3.5156e-4 1.5619-7.0312e-4 2.3425-3.5156e-4 1.7024-0.0010547 3.405-0.0014062 5.1076-7.0312e-4 1.984-0.0010547 3.9684-0.0017578 5.9528-3.5156e-4 1.6298-0.0010547 3.2592-0.0014062 4.8888 0 0.47788-3.5156e-4 0.9558-3.5156e-4 1.4337 0 0.37102-0.011914 0.72696 0.10371 1.0889v0.25398c-0.045548-0.028047-0.088984-0.058164-0.13207-0.089336zm-0.2752-0.238v-23.165c0.042384-0.043436 0.086524-0.084064 0.13207-0.12363v23.413c-0.0459-0.03957-0.089688-0.081252-0.13207-0.12434zm-0.2756-0.3412 3.9062e-5 -22.474c0.040976-0.064452 0.084764-0.1268 0.13207-0.18637v22.845c-0.0459-0.059924-0.093204-0.11984-0.13211-0.18465zm-0.2756-0.642v-21.177c0.031875-0.13524 0.076016-0.2659 0.13207-0.38992v21.946c-0.059572-0.11945-0.10055-0.24976-0.13207-0.37906zm9.2224-23.867 3.9062e-5 1.0392c-0.038555-0.13559-0.084804-0.26942-0.13211-0.4022v-0.82856c0.044844 0.0634 0.089336 0.1268 0.13207 0.1916zm-0.276-0.389v0.66106c-0.042032-0.098088-0.086876-0.19547-0.13207-0.29215v-0.53777c0.044844 0.055704 0.088984 0.11176 0.13207 0.16887zm-0.275-0.342v0.42707c-0.041328-0.080936-0.087576-0.15836-0.13207-0.23719v-0.34297c0.045196 0.050116 0.08828 0.10195 0.13207 0.15309zm0.827 1.183v1.9721c-0.026289-0.27676-0.067616-0.5574-0.13207-0.82752v-1.372c0.0459 0.074608 0.088984 0.15098 0.13207 0.22734zm0.826 13.627c0 0.43092 3.9062e-5 0.86224 3.9062e-5 1.2935l-0.13207-0.13207v-13.097c0.05078 0.18602 0.11524 0.3857 0.13203 0.57804 0.040272 0.45648 0 0.93504 0 1.3929v3.143 3.7112 3.11zm-0.276-12.401v13.418l-0.13207-0.13207v-13.64c0.046952 0.11668 0.091092 0.23476 0.13207 0.35422zm-0.275-0.687v13.83l-0.13207-0.13207v-13.969c0.0459 0.089688 0.09004 0.18008 0.13207 0.27152zm2.071 15.905 0.13207 0.13281v0.3584l-0.13207 0.13207v-0.62328zm-0.275 0.899v-1.1754l0.13207 0.13242v0.9109zm-0.275 0.275v-1.7279l0.13207 0.13277v1.463zm-0.276 0.276v-1.8421l0.13172-0.13207v1.8425zm-0.276 0.275v-1.8421l0.13207-0.13207v1.8425zm-0.275 0.276v-1.8421l0.13207-0.13207v1.8425zm-0.275 7.3146v-8.8817l0.13207-0.13207v1.0875 4.6716 1.9819 0.54867c0 0.2477-0.067968 0.48524-0.13207 0.7242zm-0.276 0.8244v-9.431l0.13207-0.13207v9.2064c-0.040976 0.12016-0.085116 0.23926-0.13207 0.35664zm-0.275 0.6084v-9.7638l0.13207-0.13207v9.6226c-0.042384 0.092148-0.086172 0.18324-0.13207 0.27328zm-0.276 0.4984-3.9062e-5 -3.2376c0.061328-0.28832 0.10547-0.58296 0.13211-0.88252v3.8909c-0.043088 0.077072-0.086172 0.15379-0.13207 0.2291zm-0.275 0.4166v-2.6868c0.048008-0.13312 0.091796-0.26871 0.13207-0.40536v2.8991c-0.043088 0.065156-0.087228 0.12926-0.13207 0.19301zm-0.276 0.3672v-2.3918c0.0459-0.09668 0.090392-0.19406 0.13207-0.29285v2.5169c-0.043088 0.056756-0.087576 0.11211-0.13207 0.16781zm-0.275 0.3261v-2.1942c0.045196-0.078828 0.089688-0.15801 0.13207-0.23859v2.2804c-0.043788 0.051132-0.087228 0.10226-0.13207 0.15238zm-0.276 0.2922v-2.0408c0.045548-0.067616 0.088984-0.13664 0.13207-0.20566v2.108c-0.04414 0.046252-0.086876 0.093204-0.13207 0.1384zm-0.275 0.2617v-1.9212c0.045196-0.058516 0.088984-0.11809 0.13207-0.17801v1.9745c-0.04414 0.04168-0.087228 0.084064-0.13207 0.12469zm-0.276 0.2373v-1.8215c0.044492-0.051484 0.088984-0.10226 0.13207-0.1548v1.8635c-0.04414 0.0375-0.087228 0.076056-0.13207 0.11285zm-0.275 0.2157v-1.7356c0.044492-0.0459 0.088984-0.091444 0.13207-0.1384v1.771c-0.04414 0.034336-0.087228 0.069728-0.13207 0.10301zm-0.275 0.1958v-1.6596c0.044492-0.041328 0.088632-0.083008 0.13207-0.12574v1.6915c-0.04414 0.031172-0.087228 0.063752-0.13207 0.093868zm-0.276 0.1773v-1.5916c0.044492-0.0375 0.088632-0.075704 0.13207-0.11426v1.6211c-0.04414 0.028359-0.087576 0.057424-0.13207 0.084764zm-0.276 0.16086v-1.5296c0.044492-0.033984 0.088632-0.068672 0.13207-0.10371v1.5573c-0.043788 0.025586-0.087576 0.051172-0.13207 0.076056zm-0.275 0.14536v-1.4729c0.044492-0.03082 0.088632-0.061992 0.13207-0.093868v1.4991c-0.043788 0.023125-0.087928 0.045196-0.13207 0.067616zm-0.275 0.13168v-1.421c0.04414-0.028008 0.088632-0.055704 0.13207-0.084764v1.4459c-0.043788 0.021016-0.08828 0.039922-0.13207 0.059884zm-0.276 0.11844v-1.3726c0.04414-0.025586 0.088632-0.049764 0.13207-0.076056v1.3951c-0.043788 0.018555-0.08828 0.035703-0.13207 0.053556zm-0.276 0.10656v-1.3278c0.04414-0.022774 0.088632-0.044844 0.13207-0.068672v1.3467c-0.04414 0.016836-0.087576 0.033984-0.13207 0.049764zm-0.275 0.0932v-1.2844c0.044492-0.020664 0.08828-0.04168 0.13207-0.0634v1.3029c-0.04414 0.015078-0.087576 0.030859-0.13207 0.044884zm-0.275 0.07985v-1.2403c0.044492-0.018555 0.087928-0.039219 0.13207-0.058828v1.2616c-0.043788 0.012969-0.087928 0.025234-0.13207 0.0375zm-0.276 0.06933v-1.2003c0.044492-0.016836 0.08828-0.034688 0.13207-0.052188v1.222c-0.043788 0.010859-0.08828 0.020312-0.13207 0.030469zm-0.275 0.05922v-1.1634c0.04414-0.014726 0.08828-0.029453 0.13207-0.044884v1.1824c-0.043788 0.0091016-0.087928 0.0175-0.13207 0.025898zm-0.276 0.049456v-1.1284c0.04414-0.012617 0.08828-0.02418 0.13207-0.0375v1.1421c-0.04414 0.0076952-0.087928 0.017148-0.13207 0.023789zm-0.275 0.035468v-1.0892c0.04414-0.010859 0.08828-0.021719 0.13207-0.033281v1.1057c-0.04414 0.0059376-0.087928 0.011524-0.13207 0.016797zm-0.276 0.02629v-1.0521c0.044492-0.0091016 0.087928-0.020664 0.13207-0.030469v1.0724c-0.043788 0.0042188-0.087928 0.0066796-0.13207 0.010195zm-0.275 0.017461v-1.0196c0.04414-0.0073436 0.08828-0.015391 0.13207-0.023438v1.0367c-0.04414 0.0024609-0.087928 0.0045704-0.13207 0.006328zm-0.275 0.0069533v-0.98656c0.04414-0.0056252 0.08828-0.010547 0.13207-0.016836v0.99988c-0.04414 0.0010547-0.087928 0.0031641-0.13207 0.0035156zm-0.276-0.0052345v-0.95008c0.04414-0.0038672 0.08828-0.0077344 0.13207-0.012656v0.96625c-0.04414-7.0312e-4 -0.08828-0.0021094-0.13207-0.0035156zm-0.2752-0.013594v-0.91539c0.044492-0.0024609 0.087928-0.0070312 0.13207-0.010195v0.93578c-0.044492-0.0024609-0.087928-0.0070312-0.13207-0.010195zm-0.276-0.022344v-0.88457c0.04414-0.0010547 0.08828-0.0021094 0.13207-0.0035156v0.89969c-0.04414-0.0038672-0.08828-0.0070312-0.13207-0.011602zm-0.2752-0.035v-0.85066c0.04414 0.0010547 0.087928 0.0035156 0.13207 0.0035156v0.86394c-0.04414-0.005586-0.08828-0.010508-0.13207-0.016797zm-0.2756-0.045936v-0.81356c0.04414 0.0035156 0.087928 0.0035156 0.13207 0.0052736v0.83207c-0.044492-0.0073436-0.08828-0.015742-0.13207-0.023789zm-0.2752-0.05539v-0.77957c0.04414 0.0035156 0.087928 0.0073828 0.13207 0.010195v0.79879c-0.044492-0.00875-0.08828-0.019609-0.13207-0.029414zm-0.2756-0.06524v-0.74594c0.04414 0.0056252 0.087928 0.01125 0.13207 0.016875v0.76094c-0.04414-0.010508-0.08828-0.020312-0.13207-0.031875zm-0.2756-0.07886v-0.70801c0.04414 0.0083984 0.087928 0.016094 0.13207 0.022734v0.72312c-0.04414-0.012617-0.08828-0.024531-0.13207-0.037852zm-0.2752-0.09071v-0.66805c0.043788 0.0094532 0.087928 0.017148 0.13207 0.024844v0.68808c-0.044492-0.014375-0.08828-0.029453-0.13207-0.044884zm-0.2756-0.10188v-0.62957c0.04414 0.010156 0.087928 0.020312 0.13207 0.030469v0.65129c-0.044492-0.016484-0.087928-0.035039-0.13207-0.052188zm-0.2756-0.1142v-0.59039c0.04414 0.011914 0.08828 0.024531 0.13207 0.0375v0.61031c-0.044492-0.018555-0.08828-0.038164-0.13207-0.057424zm-0.2756-0.12724v-0.54942c0.04414 0.015078 0.087576 0.030859 0.13207 0.044884v0.56617c-0.04414-0.020312-0.088632-0.040272-0.13207-0.06164zm-0.2752-0.14196v-0.50449c0.04414 0.0175 0.087228 0.033281 0.13207 0.04836v0.5241c-0.04414-0.022774-0.088632-0.044492-0.13207-0.067968zm-0.2756-0.15804v-0.45504c0.043436 0.018203 0.087928 0.035039 0.13207 0.052188v0.47926c-0.04414-0.025234-0.088632-0.050116-0.13207-0.076408zm-0.2756-0.174v-0.40606c0.04414 0.019961 0.08828 0.03957 0.13207 0.059884v0.43129c-0.044492-0.028047-0.08828-0.056408-0.13207-0.085116zm-0.2752-0.1913v-0.35316c0.04414 0.022422 0.08828 0.045196 0.13207 0.067968v0.37941c-0.044492-0.03082-0.08828-0.062344-0.13207-0.09422zm10.389-15.512 1.4869 1.4872-1.4872 1.4872v5.5856c0 3.8258-3.1012 6.9272-6.9272 6.9272s-6.9272-3.1012-6.9272-6.9272v-5.5856l-1.4872-1.4872 1.4876-1.4872v-11.623c0-3.8258 3.1012-6.9272 6.9272-6.9272s6.9272 3.1012 6.9272 6.9272v11.623zm-9.5958 8.5608c0 1.4739 1.1947 2.6686 2.6686 2.6686s2.6686-1.1947 2.6686-2.6686v-20.183c0-1.4739-1.1947-2.6686-2.6686-2.6686s-2.6686 1.1947-2.6686 2.6686v20.183zm41.047-22.751v-1.5573l0.13207 0.35629v1.5573zm-0.143-1.945v1.5573l-0.13207-0.35664v-1.5573zm-0.275-0.744v1.5573l-0.13207-0.35629v-1.5573zm-0.276-0.744v1.5573l-0.13172-0.35664v-1.5573zm-0.276-0.61v1.4231l-0.13207-0.35664v-1.1992zm-0.275-0.277v0.95609l-0.13207-0.35629v-0.73258zm-0.275-0.277v0.48906l-0.13207-0.35664v-0.2652zm-0.684 5.948v-0.88356l0.13207 0.096328v0.78723h-0.13207zm-0.143 0h-0.13207v-0.92387h0.13207v0.92387zm-0.275 0h-0.13207v-0.92387h0.13207v0.92387zm-0.276 0h-0.13207v-0.92387h0.13207v0.92387zm-0.275 0h-0.13207v-0.92387h0.13207v0.92387zm-0.275 0h-0.13207v-0.92387h0.13207v0.92387zm-0.276 0h-0.13207v-0.92387h0.13207v0.92387zm-0.275 0h-0.13207v-0.92387h0.13207v0.92387zm-1.929 0h-0.13207v-0.92387h0.13207v0.92387zm-0.275 0h-0.13207v-0.92387h0.13207v0.92387zm-0.276 0h-0.13207v-0.92387h0.13207v0.92387zm-0.275 0h-0.13207v-0.92387h0.13207v0.92387zm-0.275 0h-0.13207v-0.92387h0.13207v0.92387zm-0.2758 0h-0.13207v-0.92387h0.13207v0.92387zm-0.2756 0h-0.13207v-0.92387h0.13207v0.92387zm9.2334 1.555 0.13207 0.35629v0.36855l-0.13207-0.096328v-0.62852zm-0.275 0.428v-1.1716l0.13172 0.35664v0.91125zm-0.276-0.201v-1.715l0.13207 0.35664v1.4546zm-0.275-0.901v-1.5573l0.13207 0.35629v1.5573zm-0.275-0.744v-1.5573l0.13207 0.35664v1.5573zm-0.276-0.744v-1.5577l0.13172 0.35664v1.5573zm-1.928 0.607v-0.48172l0.13207 0.096328v0.38539h-0.13207zm-0.276 0v-0.68246l0.13172 0.095976v0.58648h-0.13172zm-2.347 0h-0.13207v-0.92387h0.13207v0.92387zm-0.275 0h-0.13207v-0.92387h0.13207v0.92387zm-0.276 0h-0.13207v-0.92387h0.13207v0.92387zm-0.275 0h-0.13207v-0.92387h0.13207v0.92387zm-0.276 0h-0.13207v-0.92387h0.13207v0.92387zm-0.275 0h-0.13207v-0.92387h0.13207v0.92387zm-2.2036 0h-0.13207v-0.92387h0.13207v0.92387zm-0.3432 11.667h-0.064453v-12.591h0.13172v0.92422h-0.06375zm-0.208 0h-0.13207v-12.591h0.13207v12.591zm-0.5508 0h-0.13207v-12.591h0.13207v12.591zm0.2756 0h-0.13207v-12.591h0.13207v12.591zm3.724-0.623v-0.9582l0.13172 0.13277v1.1835zm-0.275-0.747v-0.4877l0.13172 0.13242v0.71332zm3.856 9.7188v-0.82684l0.13207 0.35805v0.56512zm-0.275-0.2012v-1.3727l0.13207 0.35805v1.1109zm-0.276-0.5516v-1.5678l0.13172 0.35805v1.6571l-0.13172-0.09668v-0.25262l0.049412 0.036094zm-0.275-0.747v-1.5678l0.13207 0.35805v1.5678zm-0.276-0.748v-1.5678l0.13207 0.35805v1.5678zm-0.275-0.747v-1.5678l0.13207 0.35805v1.5675zm-0.276-0.747v-1.5678l0.13172 0.35805v1.5678zm-0.275-0.747v-1.5678l0.13207 0.35805v1.5678zm-0.275-0.747v-1.5678l0.13207 0.35805v1.5678zm-0.276-0.747v-1.5678l0.13207 0.35805v1.5678zm-0.275-0.748v-1.5678l0.13172 0.3577v1.5678zm-0.276-0.747v-1.5678l0.13207 0.35805v1.5678zm-0.275-0.747-3.9062e-5 -1.428 0.081992 0.082344 0.050116 0.13594v1.5678zm0 6.113v-0.55633l0.13207 0.096328v0.46h-0.13207zm-0.276 0v-0.75742l0.13172 0.096328v0.66109h-0.13172zm-0.275-0.924h0.047305l0.084412 0.06168v0.86254h-0.13172v-0.92422zm-0.144 0.924h-0.13207v-0.92387h0.13207v0.92387zm-0.275 0h-0.13207v-0.92387h0.13207v0.92387zm-0.276 0h-0.13207v-0.92387h0.13207v0.92387zm-0.275 0h-0.13207v-0.92387h0.13207v0.92387zm-0.276 0h-0.13207v-0.92387h0.13207v0.92387zm-0.275 0h-0.13207v-0.92387h0.13207v0.92387zm-0.275 0h-0.13207v-0.92387h0.13207v0.92387zm-0.2758 0h-0.13207v-0.92387h0.13207v0.92387zm-0.2756 0h-0.13207v-0.92387h0.13207v0.92387zm-0.2752 0h-0.13207v-0.92387h0.13207v0.92387zm-0.4076 9.5702 3.9062e-5 -10.494h0.13172v0.92422h-0.069024l-0.0031641 9.63zm-0.1436-0.1436-0.13207-0.13207v-10.219h0.13207v10.351zm-0.2752-0.2757-0.13207-0.13207v-9.9428h0.13207v10.075zm-0.2756-0.2757-0.13207-0.13207v-9.6671h0.13207v9.7992zm2.3476 2.9937v-0.64289l0.13207 0.13277v0.51012h-0.13207zm-0.276 0v-0.91965l0.13207 0.13277v0.78688h-0.13207zm-0.143 0h-0.13207v-0.92387h0.13207v0.92387zm-0.2758 0h-0.13207v-0.92387h0.13207v0.92387zm-0.2756 0h-0.13207v-0.92387h0.13207v0.92387zm-0.2752 0h-0.13207v-0.92387h0.13207v0.92387zm-0.2752 0h-0.13207v-0.92387h0.13207v0.92387zm-0.276 0h-0.13207v-0.92387h0.13207v0.92387zm-0.2752 0h-0.13207v-0.92387h0.13207v0.92387zm-0.2752 0h-0.13207v-0.92387h0.13207v0.92387zm-0.2756 0h-0.13207v-0.92387h0.13207v0.92387zm-0.2756 0h-0.13207v-0.92387h0.13207v0.92387zm-0.2752 0h-0.13207v-0.92387h0.13207v0.92387zm-0.2756 0h-0.13207v-0.92387h0.13207v0.92387zm-0.2752 0h-0.13207v-0.92387h0.13207v0.92387zm-0.2752 0h-0.13207v-0.92387h0.13207v0.92387zm-0.276 0h-0.13207v-0.92387h0.13207v0.92387zm-0.2752 0h-0.13207v-0.92387h0.13207v0.92387zm-0.2752 0h-0.13207v-0.92387h0.13207v0.92387zm-0.276 0h-0.13207v-0.92387h0.13207v0.92387zm-0.2752 0h-0.13207v-0.92387h0.13207v0.92387zm-0.2756 0h-0.13207v-0.92387h0.13207v0.92387zm-0.2752 0h-0.13207v-0.92387h0.13207v0.92387zm-0.2756 0h-0.13207v-0.92387h0.13207v0.92387zm-0.2754 0h-0.13207v-0.92387h0.13207v0.92387zm-0.2754 0h-0.13207v-0.92387h0.13207v0.92387zm-0.2753 0h-0.13207v-0.92387h0.13207v0.92387zm-0.2757 0h-0.13207v-0.92387h0.13207v0.92387zm-0.2754 0h-0.13207v-0.92387h0.13207v0.92387zm-0.2753 0h-0.13207v-0.92387h0.13207v0.92387zm-0.2753 0h-0.13207v-0.92387h0.13207v0.92387zm-0.2758 0h-0.13207v-0.92387h0.13207v0.92387zm-0.2753 0h-0.13207v-0.92387h0.13207v0.92387zm-0.2754 0h-0.13207v-0.92387h0.13207v0.92387zm-0.4074-0.22598v-0.69789h0.13172v0.83066zm-0.27574-0.27674v-0.42113h0.13207v0.55391zm14.077-34.981 1.578 4.2584 0.55108 1.4872-2.0383-1.4872h-7.5573v13.65h3.0645l0.9386-1.4872 0.54864 1.4872 0.78548 2.1291 0.7858 2.1294 0.54864 1.4872-2.0359-1.4872h-4.6358v10.384l1.4869 1.4872h-7.2325l1.4872-1.4872v-11.026l-1.4872-1.4872 1.4872-1.4872v-17.063l-1.4872-1.4872h13.212zm16.149-0.011 0.13172 0.13281v0.54793l-0.13172 0.13207v-0.81281zm-0.276 1.088v-1.3653l0.13207 0.13277v1.1004zm-0.275-1.567 0.037461-0.0375 0.094608 0.09496v1.6529l-0.13207 0.13207v-1.8425zm-0.2756 2.118v-1.8425l0.13207-0.13172v1.8421zm-0.2756 0.276v-1.8425l0.13172-0.13172v1.8421zm-0.2756 0.275v-1.8425l0.13207-0.13172v1.8421zm-0.2752 0.275v-1.8425l0.13207-0.13172v1.8421zm-0.182 16.795-0.093516-0.093556v-18.268l0.13207-0.13172v1.8421l-0.033633 0.033633zm-0.2372-0.237-0.13172-0.13207v-17.718l0.13172-0.13172v17.981zm-0.2752-0.276-0.13207-0.13207v-17.167l0.13207-0.13172v17.43zm-0.2756-0.275-0.13106-0.13102 0.0052736-16.623 0.12578-0.12578v16.88zm2.072 2.92v-0.84465l0.13207 0.13277v0.5798zm-0.2756 0.275v-1.3968l0.13207 0.13277v1.1323zm-0.2756-1.567 0.053244-0.053592 0.078476 0.07918v1.6848l-0.13172 0.13172v-1.8421zm-0.2756 2.118v-1.8421l0.13207-0.13207v1.8425zm-0.2752 0.275v-1.8421l0.13207-0.13207v1.8425zm-0.1864 10.763-0.089336-0.088944v-12.24l0.13207-0.13207v1.8425l-0.03957 0.03957zm-0.2328-0.2326-0.13172-0.13207v-11.689l0.13172-0.13207v11.953zm-0.2752-0.2753-0.13207-0.13207v-11.139l0.13207-0.13207v11.403zm-0.4076-0.4078v-10.588l0.13207-0.13172v10.852zm2.479 3.1552v-0.67406l0.13207 0.13277v0.54129h-0.13207zm-0.275-0.92387h0.026953l0.10512 0.10582v0.81805h-0.13207v-0.92387zm-0.144 0.92387h-0.13207v-0.92387h0.13207v0.92387zm-0.2748 0h-0.13207v-0.92387h0.13207v0.92387zm-0.276 0h-0.13207v-0.92387h0.13207v0.92387zm-0.2752 0h-0.13207v-0.92387h0.13207v0.92387zm-0.2752 0h-0.13207v-0.92387h0.13207v0.92387zm-0.2756 0h-0.13207v-0.92387h0.13207v0.92387zm-0.2756 0h-0.13207v-0.92387h0.13207v0.92387zm-0.2756 0h-0.13207v-0.92387h0.13207v0.92387zm-0.2752 0h-0.13207v-0.92387h0.13207v0.92387zm-0.2752 0h-0.13207v-0.92387h0.13207v0.92387zm-0.276 0h-0.13207v-0.92387h0.13207v0.92387zm-0.2752 0h-0.13207v-0.92387h0.13207v0.92387zm-0.2752 0h-0.13207v-0.92387h0.13207v0.92387zm-0.2756 0h-0.13207v-0.92387h0.13207v0.92387zm-0.2756 0h-0.13207v-0.92387h0.13207v0.92387zm-0.2752 0h-0.13207v-0.92387h0.13207v0.92387zm-0.2756 0h-0.13207v-0.92387h0.13207v0.92387zm-0.2756 0h-0.13207v-0.92387h0.13207v0.92387zm-0.2752 0h-0.13207v-0.92387h0.13207v0.92387zm-0.2756 0h-0.13207v-0.92387h0.13207v0.92387zm-0.2752 0h-0.13207v-0.92387h0.13207v0.92387zm-0.2756 0h-0.13207v-0.92387h0.13207v0.92387zm-0.2754 0h-0.13207v-0.92387h0.13207v0.92387zm-0.2754 0h-0.13207v-0.92387h0.13207v0.92387zm-0.2754 0h-0.13207v-0.92387h0.13207v0.92387zm-0.2757 0h-0.13207v-0.92387h0.13207v0.92387zm-0.2753 0h-0.13207v-0.92387h0.13207v0.92387zm-0.2754 0h-0.13207v-0.92387h0.13207v0.92387zm-0.2753 0h-0.13207v-0.92387h0.13207v0.92387zm-0.2757 0h-0.13207v-0.92387h0.13207v0.92387zm-0.2754 0h-0.13207v-0.92387h0.13207v0.92387zm-0.2753 0h-0.13207v-0.92387h0.13207v0.92387zm-0.4075-0.25679v-0.66707h0.13172v0.79949zm-0.27568-0.27716v-0.38996h0.13207v0.52274zm6.6419-16.399 1.4872 1.4872-1.4872 1.4872v11.026l1.4872 1.4872h-7.2329l1.4872-1.4872v-11.026l-1.4872-1.4872 1.4872-1.4872v-17.063l-1.4872-1.4872h7.2329l-1.4872 1.4872v17.063zm13.337-12.827c-0.044844 0.0045704-0.08828 0.012305-0.13207 0.019648v-0.86012c0.0459 0.013672 0.087928 0.029102 0.13207 0.046952v0.79352zm-0.276 0.046c-0.04414 0.010156-0.088632 0.02-0.13207 0.032617v-0.98692c0.04414 0.0076952 0.08828 0.015039 0.13207 0.025195v0.9291zm-0.4072 0.134v-1.1169c0.043788 0 0.088632 0.0062892 0.13207 0.010508v1.0538c-0.044844 0.016133-0.088984 0.033633-0.13207 0.05254zm-0.1436 0.068c-0.045548 0.023828-0.088984 0.05082-0.13207 0.077812v-1.2441c0.043788-0.0052736 0.087576-0.0084376 0.13207-0.01125v1.1775zm-0.2756 0.176c-0.045196 0.033633-0.089336 0.068632-0.13207 0.10578v-1.3972c0.043788-0.010859 0.087228-0.021719 0.13207-0.029766v1.3212zm-0.5508 0.6c-0.049064 0.079532-0.093868 0.16188-0.13207 0.2484v-1.9245c0.043088-0.023828 0.087228-0.0459 0.13207-0.066912v1.743zm2.4792-0.926c-0.043788-0.015078-0.086876-0.031172-0.13207-0.043436v-0.39801c0.0459 0.04414 0.09004 0.09074 0.13207 0.1391v0.30234zm-0.4076-0.094v-0.57285c0.012266 0.0083984 0.024883 0.016445 0.037148 0.025195 0.03293 0.023476 0.063752 0.049064 0.094924 0.073944v0.49504c-0.043788-0.0083984-0.087576-0.015742-0.13207-0.021328zm-0.1432-0.014c-0.045196-0.0024609-0.086876-3.5156e-4 -0.13207 0.0017578v-0.72277c0.044492 0.022774 0.088632 0.045196 0.13207 0.069728v0.65129zm-1.6528 0.676c-0.046252 0.048712-0.090392 0.09922-0.13207 0.15176v-1.5997c0.043436-0.016836 0.087228-0.032617 0.13207-0.04664v1.4946zm-0.5884 1.551c-3.5156e-4 0.49576-3.9062e-4 0.99184-3.9062e-4 1.4872 0 0.58016-3.5156e-4 1.16-3.5156e-4 1.7401-3.5156e-4 0.41376 0.038203 0.8212 0.038203 1.2353l-0.13207-0.11738v-7.0336c0.043088-0.033281 0.086524-0.06586 0.13207-0.095976v1.6284c0 0.2123 0.010156 0.42708 0 0.63904-0.0083984 0.17238-0.037461 0.34301-0.037461 0.5168zm-0.238 4.211c-0.045196-0.045548-0.090392-0.09004-0.13207-0.1391v-6.5035c0.042032-0.046252 0.08582-0.091092 0.13207-0.13383v6.7764zm-0.4076-0.539v-5.7246c0.039922-0.070428 0.084412-0.13805 0.13207-0.2032v6.143c-0.048008-0.069024-0.0925-0.14086-0.13207-0.21512zm-0.274-1.074c0-0.17062-3.9062e-5 -0.3416-3.9062e-5 -0.5126 3.5156e-4 -0.70348 3.5156e-4 -1.407 7.0312e-4 -2.1104 3.5156e-4 -0.55844-0.0641-1.18 0.13-1.7128v5.0856c-0.087576-0.23684-0.13066-0.49716-0.13066-0.74976zm9.6394-2.05v-4.1372c0.045548 0.085116 0.09004 0.17129 0.13207 0.25852v3.8433zm-0.275-3.404-3.9062e-5 -1.2045c0.045196 0.071484 0.089336 0.14332 0.13207 0.21656v1.627c-0.03957-0.21442-0.07914-0.4274-0.13203-0.63904zm-0.276-0.853v-0.75785c0.044844 0.06168 0.088984 0.12336 0.13207 0.18641v0.93894c-0.042736-0.12332-0.083712-0.24629-0.13207-0.3675zm-0.143-0.948v0.60438c-0.043088-0.093908-0.084412-0.18781-0.13207-0.27961v-0.49258c0.045196 0.055 0.08828 0.11176 0.13207 0.16781zm1.245 5.058-3.9062e-5 -2.6616c0.050116 0.1643 0.093204 0.33176 0.13211 0.50064v2.1255zm-0.275 0.074v-3.4898c0.0466 0.10859 0.09074 0.21894 0.13207 0.33035v3.124zm-0.551 0.147v-1.1695l0.13207-0.035039v1.1691zm-0.276 0.073v-1.1695l0.13172-0.035039v1.1691zm-0.143-1.13v1.1691l-0.13207 0.035391v-1.1695zm-0.275 0.073v1.1691l-0.13207 0.035391v-1.1695zm-0.276 1.243-0.13207 0.035391v-1.1695l0.13207-0.035039v1.1691zm-0.276 0.073-0.13172 0.035391v-1.1695l0.13172-0.035039v1.1691zm-0.275 0.074-0.13207 0.035391v-1.1695l0.13207-0.035039v1.1691zm-0.275 0.073-0.13207 0.035391v-1.1695l0.13207-0.035039v1.1691zm-0.276 0.074-0.13207 0.035391v-1.1695l0.13207-0.035039v1.1691zm-0.275 0.074-0.13207 0.035391v-1.1695l0.13207-0.035039v1.1691zm-0.276 0.073-0.13207 0.035391v-1.1695l0.13207-0.035391v1.1695zm-0.275 0.074-0.13207 0.035391v-1.1695l0.13207-0.035391v1.1695zm-0.276 0.073-0.13207 0.035391v-1.1695l0.13207-0.035391v1.1695zm-0.275-1.095v1.1695l-0.13207 0.035039v-1.1691zm-0.275 0.073v1.1695l-0.13207 0.035039v-1.1691zm-0.276 0.074v1.1695l-0.13207 0.035039v-1.1691zm-0.275 1.102-0.13207-0.13277v-0.86047l0.13207-0.035391v1.0286zm-0.408-0.41v-0.50976l0.13207-0.035391v0.67793zm1.102 7.544v-2.1914l0.13207 0.13277v2.176zm-0.276-0.245v-2.2233l0.13207 0.13277v2.2079zm-0.275-0.245v-2.2552l0.13207 0.13277v2.2398zm-3.03 4.427 0.13207 0.1177v0.31988l-0.13207 0.0076952v-0.44527zm-0.2756-0.245 0.13207 0.11738v0.58121l-0.13207 0.0076952v-0.70629zm-0.2752-0.245 0.13172 0.11738v0.84258l-0.13172 0.0076952v-0.96766zm-0.276 6e-3 0.13207-0.0076952v0.97781l-0.13207 0.0076952v-0.97781zm-0.2752 0.016 0.13207-0.0076952v0.97781l-0.13207 0.0080468v-0.97816zm-0.1436 9e-3v0.97781l-0.13207 0.0076952v-0.97781zm-0.2756 0.016v0.97781l-0.13172 0.0076952v-0.97781zm-0.2752 0.016v0.97781l-0.13207 0.0076952v-0.97781zm-0.2756 0.016v0.94976l-0.13207-0.13277v-0.8093zm-0.4072 0.024 0.13207-0.0077344v0.65656l-0.13207-0.13277v-0.51606zm1.1016 8.5496 3.5156e-4 -2.6815 0.088984 0.089688c0 0.34473-3.5156e-4 0.6898-3.5156e-4 1.0345-3.5156e-4 0.3952-0.033633 0.81212 0.043088 1.2017v0.44984c-0.045196-0.029414-0.088984-0.060936-0.13207-0.09422zm-0.2752-0.2564v-2.7015l0.13207 0.13277v2.7036c-0.0466-0.043088-0.089336-0.087576-0.13207-0.13488zm-0.2756-0.3796v-2.5992l0.13207 0.13277v2.6696c-0.048008-0.065508-0.092148-0.13312-0.13207-0.2032zm-0.2756-0.9792v-1.8971l0.13207 0.13277v2.4349c-0.07918-0.21266-0.12402-0.43828-0.13207-0.67056zm10.509-0.3028c0 0.64044 0.025547 1.2904-0.041016 1.928v-5.2349c0.038203 0.36297 0.04172 0.72592 0.04172 1.0903-3.5156e-4 0.73888-3.5156e-4 1.4777-7.0312e-4 2.2166zm-0.317 3.2944 3.9062e-5 -7.9716c0.05078 0.16746 0.093516 0.33774 0.13207 0.50872v6.9582c-0.038555 0.17062-0.081992 0.33914-0.13211 0.50484zm-0.826-8.553v-1.2311c0.045196 0.071484 0.089336 0.14367 0.13207 0.21688v1.6561c-0.035742-0.21617-0.079884-0.42916-0.13207-0.64184zm-0.276-0.871v-0.77035c0.045196 0.062344 0.088984 0.12539 0.13207 0.18879v0.95293c-0.040976-0.12508-0.084764-0.24875-0.13207-0.37137zm-0.275-0.627v-0.50024c0.045196 0.055 0.08828 0.11141 0.13207 0.16781v0.61379c-0.04168-0.09496-0.086524-0.18816-0.13207-0.28137zm-0.276-0.507v-0.30871c0.044844 0.048712 0.088632 0.098124 0.13207 0.14789v0.39344c-0.043436-0.078124-0.086172-0.15625-0.13207-0.23262zm1.377 11.323v-9.4947c0.0466 0.11 0.09074 0.22141 0.13207 0.33352v8.8287c-0.041328 0.11211-0.085468 0.22281-0.13207 0.33246zm-0.275 0.5741v-10.65c0.046252 0.086876 0.089688 0.1748 0.13207 0.26344v10.129c-0.042032 0.087228-0.086876 0.1727-0.13207 0.25781zm-0.275 0.4748v-3.0704c0.053244-0.21195 0.097384-0.42708 0.13207-0.64572v3.4979c-0.043088 0.073556-0.086876 0.14644-0.13207 0.21828zm-0.276 0.4075v-2.6125c0.047304-0.12191 0.091444-0.24524 0.13207-0.36996v2.7971c-0.042736 0.062696-0.087576 0.12402-0.13207 0.18535zm-0.275 0.3591v-2.3448c0.046252-0.092852 0.089688-0.18676 0.13207-0.28172v2.4587c-0.043788 0.056408-0.086876 0.11281-0.13207 0.16781zm-0.276 0.3164v-2.1561c0.045196-0.075664 0.089688-0.15168 0.13207-0.2291v2.2359c-0.043788 0.050116-0.087228 0.10024-0.13207 0.1493zm-0.275 0.283v-2.012c0.045196-0.065156 0.088984-0.13137 0.13207-0.19793v2.0772c-0.043788 0.044492-0.087576 0.088984-0.13207 0.13277zm-0.276 0.2564v-1.8971c0.044492-0.056408 0.089336-0.11246 0.13207-0.16992v1.9476c-0.043436 0.040272-0.087576 0.080196-0.13207 0.11945zm-0.275 0.2323v-1.7994c0.044492-0.050468 0.088632-0.10094 0.13207-0.15242v1.8439c-0.043436 0.036445-0.087576 0.072188-0.13207 0.10793zm-0.275 0.2113v-1.7149c0.044844-0.045196 0.088632-0.091796 0.13207-0.1384v1.7549c-0.043788 0.033281-0.087928 0.066212-0.13207 0.098436zm-0.276 0.192v-1.6414c0.044844-0.040976 0.08828-0.083712 0.13207-0.12574v1.6771c-0.043788 0.030469-0.087576 0.060588-0.13207 0.09zm-0.276 0.1748v-1.5759c0.044844-0.037148 0.08828-0.076056 0.13207-0.11426v1.6074c-0.04414 0.027695-0.087576 0.055744-0.13207 0.082736zm-0.275 0.15874v-1.5167c0.044844-0.033633 0.08828-0.069024 0.13207-0.10371v1.5443c-0.04414 0.025234-0.087576 0.051876-0.13207 0.076056zm-0.275 0.14188v-1.4613c0.044492-0.030469 0.08828-0.062344 0.13207-0.093868v1.4876c-0.04414 0.022774-0.087576 0.045548-0.13207 0.067616zm-0.276 0.12784v-1.4098c0.044492-0.027695 0.08828-0.056408 0.13207-0.084764v1.4346c-0.043788 0.020664-0.087928 0.040272-0.13207 0.059884zm-0.276 0.11492v-1.3618c0.044492-0.024883 0.08828-0.050116 0.13207-0.076056v1.3856c-0.043788 0.018203-0.08828 0.034688-0.13207 0.052188zm-0.275 0.10304v-1.3173c0.04414-0.022422 0.088632-0.04414 0.13207-0.067616v1.3387c-0.043788 0.016133-0.087928 0.030859-0.13207 0.046288zm-0.275 0.09177v-1.2757c0.04414-0.020312 0.088632-0.038867 0.13207-0.059884v1.2924c-0.04414 0.014726-0.087928 0.029453-0.13207 0.043124zm-0.276 0.07808v-1.2333c0.04414-0.018203 0.08828-0.036406 0.13207-0.055312v1.2511c-0.04414 0.012266-0.087928 0.025586-0.13207 0.0375zm-0.276 0.06614v-1.1912c0.044492-0.016133 0.087928-0.034336 0.13207-0.051484v1.2122c-0.043788 0.010508-0.087928 0.020664-0.13207 0.030469zm-0.2748 0.05605v-1.1536c0.044492-0.014375 0.08828-0.029805 0.13207-0.044884v1.1751c-0.043788 0.00875-0.08828 0.015391-0.13207 0.023438zm-0.2756 0.04664v-1.1189c0.04414-0.012266 0.08828-0.024531 0.13207-0.0375v1.1358c-0.04414 0.006992-0.087928 0.014336-0.13207 0.020625zm-0.2752 0.03508v-1.083c0.04414-0.010508 0.08828-0.019258 0.13207-0.030469v1.0966c-0.04414 0.0056252-0.087928 0.011914-0.13207 0.016836zm-0.2756 0.023086v-1.0455c0.044492-0.00875 0.08828-0.018203 0.13207-0.027656v1.0629c-0.043788 0.0038672-0.087928 0.0070312-0.13207 0.010195zm-0.2756 0.014336v-1.0101c0.044492-0.0073436 0.087928-0.016094 0.13207-0.023789v1.0304c-0.043788 0.0024609-0.08828 0.0021094-0.13207 0.0035156zm-0.2752 0.0059375v-0.97891c0.04414-0.0052736 0.08828-0.010859 0.13207-0.016797v0.99359c-0.04414 7.0312e-4 -0.087928 0.0021094-0.13207 0.0021094zm-0.2756-0.0070311v-0.94379c0.04414-0.0038672 0.08828-0.0056252 0.13207-0.010195v0.9575c-0.04414-0.0010547-0.08828-0.0017578-0.13207-0.0035156zm-0.2756-0.016758v-0.9084c0.044492-0.0021094 0.08828-0.0052736 0.13207-0.008086v0.92668c-0.04414-0.0028125-0.087928-0.0066796-0.13207-0.010195zm-0.2752-0.025506v-0.87547c0.04414-7.0312e-4 0.08828-0.0024609 0.13207-0.0035156v0.89375c-0.044492-0.0045704-0.08828-0.0098436-0.13207-0.014766zm-0.2756-0.035004v-0.84438c0.04414 0.0014062 0.087928 0.0031641 0.13207 0.0035156v0.85766c-0.04414-0.0059376-0.08828-0.010156-0.13207-0.016797zm-0.2752-0.0491v-0.80726c0.04414 0.0038672 0.087928 0.006328 0.13207 0.0084376v0.82262c-0.04414-0.0076952-0.08828-0.015391-0.13207-0.023789zm-0.276-0.05859v-0.77012c0.043788 0.0045704 0.087928 0.0070312 0.13207 0.010195v0.79039c-0.044492-0.0091016-0.087928-0.020312-0.13207-0.030469zm-0.2752-0.06836v-0.73644c0.04414 0.0052736 0.087928 0.011211 0.13207 0.016836v0.75465c-0.044492-0.010859-0.08828-0.023125-0.13207-0.035039zm-0.2756-0.07918v-0.70133c0.04414 0.0080468 0.08828 0.016094 0.13207 0.023789v0.71574c-0.04414-0.012969-0.08828-0.024531-0.13207-0.038203zm-0.2752-0.09347v-0.66141c0.04414 0.010508 0.087576 0.019609 0.13207 0.028008v0.67828c-0.04414-0.014726-0.08828-0.029102-0.13207-0.044884zm-0.2756-0.10576v-0.62012c0.043788 0.011211 0.087928 0.021016 0.13207 0.03082v0.64148c-0.044492-0.016836-0.08828-0.034688-0.13207-0.052188zm-0.2756-0.11772v-0.58055c0.04414 0.012617 0.08828 0.025234 0.13207 0.037852v0.60258c-0.044492-0.018906-0.087928-0.039922-0.13207-0.059884zm-0.2752-0.13072v-0.53852c0.04414 0.014726 0.08828 0.029805 0.13207 0.044884v0.55914c-0.044492-0.021367-0.08828-0.043436-0.13207-0.065508zm-0.276-0.14436v-0.4943c0.043788 0.0175 0.087576 0.035703 0.13207 0.051484v0.51359c-0.04414-0.023476-0.08828-0.0466-0.13207-0.07078zm-0.2752-0.15968v-0.4473c0.04414 0.019961 0.087228 0.038164 0.13207 0.055664v0.4684c-0.04414-0.025586-0.088632-0.050116-0.13207-0.076756zm-0.2756-0.1776v-0.39484c0.043788 0.021016 0.087928 0.040624 0.13207 0.060236v0.41973c-0.04414-0.028359-0.088632-0.056056-0.13207-0.085116zm-0.2752-0.1955v-0.34125c0.04414 0.022774 0.087928 0.045548 0.13207 0.067968v0.3675c-0.04414-0.031172-0.088632-0.061992-0.13207-0.09422zm3.5224-34.019c3.8254 0 6.9268 3.1012 6.9276 6.9268l-4.2584 1.1376v-1.0255c0-1.4609-1.126-2.7355-2.5866-2.7793-1.5114-0.045196-2.7509 1.1663-2.7509 2.6676v3.6128c0 0.79528 0.3402 1.5531 0.93472 2.0818l2.0436 1.8176 2.0937-0.12262 0.12262 2.0937 2.0775 1.8474c1.4778 1.3145 2.3235 3.198 2.3235 5.176v3.6779c0 3.8251-3.1009 6.9264-6.9264 6.9264h-7.0312e-4c-3.8258 0-6.9272-3.1012-6.9272-6.9272l4.2584-1.1376v1.1376c0 1.5839 1.38 2.8455 3.0032 2.6483 1.3544-0.1643 2.3344-1.3852 2.3344-2.7495v-3.5119c0-0.79528-0.3402-1.5531-0.93472-2.0818l-2.0436-1.8172-2.0937 0.12262-0.12262-2.0937-2.0775-1.8474c-1.4781-1.3145-2.3239-3.198-2.3239-5.176v-3.6772c0-3.8258 3.1012-6.9272 6.9272-6.9272zm20.396 0.167v0.64012l-0.13207 0.13172v-0.90391zm-0.275-0.276v1.1912l-0.13207 0.13172v-1.455zm-0.276-0.276-3.9062e-5 1.7423-0.13172 0.13172v-1.8421l0.081992-0.081992zm-0.2752 0.176v1.8425l-0.13172 0.13172v-1.8421zm-0.2756 0.275v1.8425l-0.13207 0.13172v-1.8421zm-0.2752 0.275v1.8425l-0.13207 0.13172v-1.8421zm-0.4076 2.25v-1.8421l0.13172-0.13207v1.8425zm-0.6944 14.786h-0.13207v-15.802l0.13207-0.13207v15.934zm0.5508 0h-0.13172v-16.353l0.13172-0.13207v16.485zm-0.2752 0h-0.13207v-16.078l0.13207-0.13207v16.21zm11.712-17.48 0.13207 0.13281v0.72871l-0.13207 0.13207v-0.99359zm-0.275 1.269v-1.5461l0.13207 0.13277v1.2812zm-0.275-1.567 0.1275-0.12754 0.0045704 0.0045704v1.8334l-0.13207 0.13207v-1.8425zm-0.276 2.118v-1.8425l0.13207-0.13172v1.8421zm-0.276 0.276v-1.8425l0.13207-0.13172v1.8421zm-0.275 0.275v-1.8425l0.13207-0.13172v1.8421zm-0.275 0.275v-1.8425l0.13207-0.13172v1.8421zm-0.144 16.654-0.13207-0.13207v-18.088l0.13207-0.13172v18.352zm-0.276-0.276-0.13207-0.13172v-17.538l0.13207-0.13172v17.801zm-0.275-0.276-0.13207-0.13207v-16.987l0.13207-0.13172v17.25zm-0.275-0.275-0.040664-0.040624 0.004922-16.623 0.035742-0.035742v16.699zm-5.509 5.244h-0.13207v-0.92387h0.13207v0.92387zm-0.276 0h-0.13207v-0.92387h0.13207v0.92387zm-0.275 0h-0.13207v-0.92387h0.13207v0.92387zm-0.276 0h-0.13207v-0.92387h0.13207v0.92387zm-0.275 0h-0.13207v-0.92387h0.13207v0.92387zm-0.276 0h-0.13207v-0.92387h0.13207v0.92387zm-0.275 0h-0.13207v-0.92387h0.13207v0.92387zm-0.276 0h-0.13207v-0.92387h0.13207v0.92387zm-0.2748 0h-0.13207v-0.92387h0.13207v0.92387zm-0.2756 0h-0.13207v-0.92387h0.13207v0.92387zm-0.2756 0h-0.13207v-0.92387h0.13207v0.92387zm-0.2752 0h-0.13207v-0.92387h0.13207v0.92387zm-0.2756 9.5348-0.13172-0.13207v-10.326h0.13172v10.459zm-0.2756-0.2757-0.13207-0.13211v-10.051h0.13207v10.183zm-0.2752-0.2754-0.13207-0.13207v-9.7754h0.13207v9.9074zm11.438-11.128v-1.0251l0.13207 0.13277v0.76024zm-0.276 0.275v-1.5776l0.13207 0.13277v1.3131zm-0.275 0.276v-1.8421l0.13207-0.13207v1.8425zm-0.276 0.275v-1.8421l0.13207-0.13207v1.8425zm-0.275 0.275v-1.8421l0.13207-0.13207v1.8425zm-0.144 10.626-0.13207-0.13207v-12.06l0.13207-0.13207v12.324zm-0.275-0.2754-0.13207-0.13207v-11.509l0.13207-0.13207v11.773zm-0.275-0.2756-0.13207-0.13207v-10.958l0.13207-0.13207v11.222zm-0.276-0.2754-0.044844-0.045196 0.0031641-10.585 0.04168-0.04168v10.672zm2.622 3.1132v-0.4873l0.13207 0.13277v0.35453h-0.13207zm-0.275 3.906e-5v-0.76445l0.13207 0.13277v0.63168h-0.13207zm-0.275-0.92387h0.11699l0.015078 0.015078v0.90879h-0.13207v-0.92387zm-0.144 0.92387h-0.13207v-0.92387h0.13207v0.92387zm-0.275 0h-0.13207v-0.92387h0.13207v0.92387zm-0.276 0h-0.13207v-0.92387h0.13207v0.92387zm-0.275 0h-0.13207v-0.92387h0.13207v0.92387zm-0.276 0h-0.13207v-0.92387h0.13207v0.92387zm-0.275 0h-0.13207v-0.92387h0.13207v0.92387zm-0.275 0h-0.13207v-0.92387h0.13207v0.92387zm-0.276 0h-0.13207v-0.92387h0.13207v0.92387zm-0.276 0h-0.13207v-0.92387h0.13207v0.92387zm-0.275 0h-0.13207v-0.92387h0.13207v0.92387zm-0.275 0h-0.13207v-0.92387h0.13207v0.92387zm-0.276 0h-0.13207v-0.92387h0.13207v0.92387zm-0.275 0h-0.13207v-0.92387h0.13207v0.92387zm-0.275 0h-0.13207v-0.92387h0.13207v0.92387zm-0.276 0h-0.13207v-0.92387h0.13207v0.92387zm-0.275 0h-0.13207v-0.92387h0.13207v0.92387zm-0.276 0h-0.13207v-0.92387h0.13207v0.92387zm-0.275 0h-0.13207v-0.92387h0.13207v0.92387zm-0.276 0h-0.13207v-0.92387h0.13207v0.92387zm-0.275 0h-0.13207v-0.92387h0.13207v0.92387zm-0.276 0h-0.13207v-0.92387h0.13207v0.92387zm-0.275 0h-0.13207v-0.92387h0.13207v0.92387zm-0.276 0h-0.13207v-0.92387h0.13207v0.92387zm-0.275 0h-0.13207v-0.92387h0.13207v0.92387zm-0.275 0h-0.13207v-0.92387h0.13207v0.92387zm-0.276 0h-0.13207v-0.92387h0.13207v0.92387zm-0.275 0h-0.13207v-0.92387h0.13207v0.92387zm-0.275 0h-0.13207v-0.92387h0.13207v0.92387zm-0.276 0h-0.13207v-0.92387h0.13207v0.92387zm-0.276 0h-0.13207v-0.92387h0.13207v0.92387zm-0.275 0h-0.13207v-0.92387h0.13207v0.92387zm-0.275 0h-0.13207v-0.92387h0.13207v0.92387zm-0.276 0h-0.13207v-0.92387h0.13207v0.92387zm-0.275 0h-0.13207v-0.92387h0.13207v0.92387zm-0.276 0h-0.13207v-0.92387h0.13207v0.92387zm-0.275 0h-0.13207v-0.92387h0.13207v0.92387zm-0.2756 0h-0.13207v-0.92387h0.13207v0.92387zm-0.2756 0h-0.13207v-0.92387h0.13207v0.92387zm-0.2752 0h-0.13207v-0.92387h0.13207v0.92387zm-0.2756 0h-0.13207v-0.92387h0.13207v0.92387zm-0.2756 0h-0.13207v-0.92387h0.13207v0.92387zm-0.2752 0h-0.13207v-0.92387h0.13207v0.92387zm-0.2756 0h-0.13207v-0.92387h0.13207v0.92387zm-0.2756 0h-0.13207v-0.92387h0.13207v0.92387zm-0.2752 0h-0.13207v-0.92387h0.13207v0.92387zm-0.2756 0h-0.13207v-0.92387h0.13207v0.92387zm-0.2752 0h-0.13207v-0.92387h0.13207v0.92387zm-0.2756 0h-0.13207v-0.92387h0.13207v0.92387zm-0.2756 0h-0.13207v-0.92387h0.13207v0.92387zm-0.2752 0h-0.13207v-0.92387h0.13207v0.92387zm-0.2752 0h-0.13207v-0.92387h0.13207v0.92387zm-0.276 0h-0.13207v-0.92387h0.13207v0.92387zm-0.2752 0h-0.13207v-0.92387h0.13207v0.92387zm-0.2752 0h-0.13207v-0.92387h0.13207v0.92387zm-0.2756 0h-0.13207v-0.92387h0.13207v0.92387zm-0.2756 0h-0.13207v-0.92387h0.13207v0.92387zm-0.2754 0h-0.13207v-0.92387h0.13207v0.92387zm-0.2753 0h-0.13207v-0.92387h0.13207v0.92387zm-0.2754 0h-0.13207v-0.92387h0.13207v0.92387zm-0.2757 0h-0.13207v-0.92387h0.13207v0.92387zm-0.2753 0h-0.13207v-0.92387h0.13207v0.92387zm-0.2754 0h-0.13207v-0.92387h0.13207v0.92387zm-0.2753 0h-0.13207v-0.92387h0.13207v0.92387zm-0.2757 0h-0.13207v-0.92387h0.13207v0.92387zm-0.2754 0h-0.13207v-0.92387h0.13207v0.92387zm-0.2753 0h-0.13207v-0.92387h0.13207v0.92387zm-0.4075-0.11703 3.9062e-5 -0.80684h0.13172v0.92387h-0.01543zm-0.27566-0.27711v-0.52973h0.13207v0.6625zm10.353-35.089h7.2329l-1.4872 1.4872v17.063l1.4872 1.4872-1.4872 1.4872v11.026l1.4872 1.4872h-7.2329l1.4872-1.4872v-10.384h-5.3375v10.384l1.4872 1.4872h-7.2325l1.4872-1.4872v-11.026l-1.4872-1.4872 1.4872-1.4872v-17.063l-1.4872-1.4872h7.2325l-1.4872 1.4872v16.421h5.3375v-16.421zm21.233-0.012 0.13172 0.13281v0.54793l-0.13172 0.13207v-0.81281zm-0.276 1.088v-1.3653l0.13207 0.13277v1.1004zm-0.275-1.567 0.037461-0.0375 0.094608 0.09496v1.6529l-0.13207 0.13207v-1.8425zm-0.2756 2.118v-1.8425l0.13207-0.13172v1.8421zm-0.2756 0.276v-1.8425l0.13172-0.13172v1.8421zm-0.2756 0.275v-1.8425l0.13207-0.13172v1.8421zm-0.2752 0.275v-1.8425l0.13207-0.13172v1.8421zm-0.182 16.795-0.093516-0.093556v-18.268l0.13207-0.13172v1.8421l-0.033633 0.033633zm-0.2372-0.237-0.13172-0.13207v-17.718l0.13172-0.13172v17.981zm-0.2752-0.276-0.13207-0.13207v-17.167l0.13207-0.13172v17.43zm-0.2756-0.275-0.13106-0.13102 0.0052736-16.623 0.12578-0.12578v16.88zm2.072 2.92v-0.84465l0.13207 0.13277v0.5798zm-0.2756 0.275v-1.3968l0.13207 0.13277v1.1323zm-0.2756-1.567 0.053244-0.053592 0.078476 0.07918v1.6848l-0.13172 0.13172v-1.8421zm-0.2756 2.118v-1.8421l0.13207-0.13207v1.8425zm-0.2752 0.275v-1.8421l0.13207-0.13207v1.8425zm-0.1864 10.763-0.089336-0.088944v-12.24l0.13207-0.13207v1.8425l-0.03957 0.03957zm-0.2328-0.2326-0.13172-0.13207v-11.689l0.13172-0.13207v11.953zm-0.2752-0.2753-0.13207-0.13207v-11.139l0.13207-0.13207v11.403zm-0.4076-0.4078v-10.588l0.13207-0.13172v10.852zm2.479 3.1552v-0.67406l0.13207 0.13277v0.54129h-0.13207zm-0.275-0.92387h0.026953l0.10512 0.10582v0.81805h-0.13207v-0.92387zm-0.144 0.92387h-0.13207v-0.92387h0.13207v0.92387zm-0.2748 0h-0.13207v-0.92387h0.13207v0.92387zm-0.276 0h-0.13207v-0.92387h0.13207v0.92387zm-0.2752 0h-0.13207v-0.92387h0.13207v0.92387zm-0.2752 0h-0.13207v-0.92387h0.13207v0.92387zm-0.2756 0h-0.13207v-0.92387h0.13207v0.92387zm-0.2756 0h-0.13207v-0.92387h0.13207v0.92387zm-0.2756 0h-0.13207v-0.92387h0.13207v0.92387zm-0.2752 0h-0.13207v-0.92387h0.13207v0.92387zm-0.2752 0h-0.13207v-0.92387h0.13207v0.92387zm-0.276 0h-0.13207v-0.92387h0.13207v0.92387zm-0.2752 0h-0.13207v-0.92387h0.13207v0.92387zm-0.2752 0h-0.13207v-0.92387h0.13207v0.92387zm-0.2756 0h-0.13207v-0.92387h0.13207v0.92387zm-0.2756 0h-0.13207v-0.92387h0.13207v0.92387zm-0.2752 0h-0.13207v-0.92387h0.13207v0.92387zm-0.2756 0h-0.13207v-0.92387h0.13207v0.92387zm-0.2756 0h-0.13207v-0.92387h0.13207v0.92387zm-0.2752 0h-0.13207v-0.92387h0.13207v0.92387zm-0.2756 0h-0.13207v-0.92387h0.13207v0.92387zm-0.2752 0h-0.13207v-0.92387h0.13207v0.92387zm-0.2756 0h-0.13207v-0.92387h0.13207v0.92387zm-0.2754 0h-0.13207v-0.92387h0.13207v0.92387zm-0.2754 0h-0.13207v-0.92387h0.13207v0.92387zm-0.2754 0h-0.13207v-0.92387h0.13207v0.92387zm-0.2757 0h-0.13207v-0.92387h0.13207v0.92387zm-0.2753 0h-0.13207v-0.92387h0.13207v0.92387zm-0.2754 0h-0.13207v-0.92387h0.13207v0.92387zm-0.2753 0h-0.13207v-0.92387h0.13207v0.92387zm-0.2757 0h-0.13207v-0.92387h0.13207v0.92387zm-0.2754 0h-0.13207v-0.92387h0.13207v0.92387zm-0.2753 0h-0.13207v-0.92387h0.13207v0.92387zm-0.4075-0.25679v-0.66707h0.13172v0.79949zm-0.27568-0.27716v-0.38996h0.13207v0.52274zm6.6419-16.399 1.4872 1.4872-1.4872 1.4872v11.026l1.4872 1.4872h-7.2329l1.4872-1.4872v-11.026l-1.4872-1.4872 1.4872-1.4872v-17.063l-1.4872-1.4872h7.2329l-1.4872 1.4872v17.063zm25.226-18.589 0.13172 0.13277v0.60121l-0.13172 0.13172v-0.8657zm-0.276 1.142v-1.4182l0.13207 0.13277v1.1537zm-0.275-1.567 0.0641-0.0641 0.067968 0.06832v1.7062l-0.13207 0.13172v-1.8421zm-0.275 2.118v-1.8425l0.13207-0.13207v1.8425zm-0.276 0.275v-1.8425l0.13172-0.13207v1.8425zm-0.276 0.275v-1.8425l0.13207-0.13207v1.8425zm-0.275 0.276v-1.8425l0.13207-0.13207v1.8425zm-0.155 16.768-0.1198-0.1198v-18.216l0.13207-0.13207v1.8425l-0.0073436 0.006992zm-0.264-0.263-0.13172-0.13207v-17.664l0.13172-0.13207v17.929zm-0.275-0.276-0.13207-0.13172v-17.114l0.13207-0.13207v17.378zm-0.276-0.276-0.10441-0.10441 0.004922-16.623 0.099492-0.099492v16.827zm-8.8146 14.78-0.13207-0.13207v-23.599l0.13207 0.17098v23.56zm-0.2756-0.2757-0.13172-0.13207v-23.681l0.13172 0.17098v23.642zm-0.2752-0.2757-0.13207-0.13211v-23.761l0.13207 0.17098v23.723zm-0.2756-0.2758-0.060936-0.060976 0.0073436-23.812 0.053592 0.069376v23.804zm11.713-10.98v-0.89793l0.13207 0.13277v0.63308zm-0.275 0.276v-1.4504l0.13207 0.13277v1.1856zm-0.276-1.567 0.079884-0.079884 0.051836 0.05254v1.7377l-0.13172 0.13207v-1.8425zm-0.276 2.117v-1.8425l0.13207-0.13172v1.8421zm-0.275 0.276v-1.8425l0.13207-0.13172v1.8421zm-0.16 10.736-0.11559-0.11562v-12.187l0.13207-0.13172v1.8421l-0.01332 0.01332zm-0.259-0.2593-0.13172-0.13211v-11.636l0.13172-0.13172v11.9zm-0.275-0.2754-0.13207-0.13211v-11.086l0.13207-0.13172v11.349zm-0.276-0.2757-0.10863-0.10859 0.0031641-10.585 0.10547-0.10512v10.798zm2.623 3.0498v-0.42356l0.13172 0.13277v0.29078h-0.13172zm-0.276 0v-0.70066l0.13207 0.13277v0.56789h-0.13207zm-0.275-0.92384h0.053594l0.078476 0.078828v0.84504h-0.13207v-0.92387zm-0.143 0.92388h-0.13207v-0.92387h0.13207v0.92387zm-0.276 0h-0.13207v-0.92387h0.13207v0.92387zm-0.276 0h-0.13207v-0.92387h0.13207v0.92387zm-0.275 0h-0.13207v-0.92387h0.13207v0.92387zm-0.275 0h-0.13207v-0.92387h0.13207v0.92387zm-0.276 0h-0.13207v-0.92387h0.13207v0.92387zm-0.275 0h-0.13207v-0.92387h0.13207v0.92387zm-0.275 0h-0.13207v-0.92387h0.13207v0.92387zm-0.276 0h-0.13207v-0.92387h0.13207v0.92387zm-0.275 0h-0.13207v-0.92387h0.13207v0.92387zm-0.276 0h-0.13207v-0.92387h0.13207v0.92387zm-0.275 0h-0.13207v-0.92387h0.13207v0.92387zm-0.276 0h-0.13207v-0.92387h0.13207v0.92387zm-0.275 0h-0.13207v-0.92387h0.13207v0.92387zm-0.276 0h-0.13207v-0.92387h0.13207v0.92387zm-0.275 0h-0.13207v-0.92387h0.13207v0.92387zm-0.275 0h-0.13207v-0.92387h0.13207v0.92387zm-0.276 0h-0.13207v-0.92387h0.13207v0.92387zm-0.275 0h-0.13207v-0.92387h0.13207v0.92387zm-0.276 0h-0.13207v-0.92387h0.13207v0.92387zm-0.275 0h-0.13207v-0.92387h0.13207v0.92387zm-0.276 0h-0.13207v-0.92387h0.13207v0.92387zm-0.275 0h-0.13207v-0.92387h0.13207v0.92387zm-0.276 0h-0.13207v-0.92387h0.13207v0.92387zm-0.275 0h-0.13207v-0.92387h0.13207v0.92387zm-0.275 0h-0.13207v-0.92387h0.13207v0.92387zm-0.276 0h-0.13207v-0.92387h0.13207v0.92387zm-0.275 0h-0.13207v-0.92387h0.13207v0.92387zm-0.276 0h-0.13207v-0.92387h0.13207v0.92387zm-0.275 0h-0.13207v-0.92387h0.13207v0.92387zm-0.276 0h-0.13207v-0.92387h0.13207v0.92387zm-0.275 0h-0.13207v-0.92387h0.13207v0.92387zm-0.275 0h-0.13207v-0.92387h0.13207v0.92387zm-0.276 0h-0.13207v-0.92387h0.13207v0.92387zm-0.276 0h-0.13207v-0.92387h0.13207v0.92387zm-0.275 0h-0.13207v-0.92387h0.13207v0.92387zm-0.275 0h-0.13207v-0.92387h0.13207v0.92387zm-0.276 0h-0.13207v-0.92387h0.13207v0.92387zm-0.2752 0h-0.13207v-0.92387h0.13207v0.92387zm-0.2752 0h-0.13207v-0.92387h0.13207v0.92387zm-0.2756 0h-0.13207v-0.92387h0.13207v0.92387zm-0.2756 0h-0.13207v-0.92387h0.13207v0.92387zm-0.2752 0h-0.13207v-0.92387h0.13207v0.92387zm-0.2756 0h-0.13207v-0.92387h0.13207v0.92387zm-0.2752 0h-0.13207v-0.92387h0.13207v0.92387zm-0.2756 0h-0.13207v-0.92387h0.13207v0.92387zm-0.2756 0h-0.13207v-0.92387h0.13207v0.92387zm-0.2752 0h-0.13207v-0.92387h0.13207v0.92387zm-0.2756 0h-0.13207v-0.92387h0.13207v0.92387zm-0.2756 0h-0.13207v-0.92387h0.13207v0.92387zm-0.2752 0h-0.13207v-0.92387h0.13207v0.92387zm-0.2756 0h-0.13207v-0.92387h0.13207v0.92387zm-0.2756 0h-0.13207v-0.92387h0.13207v0.92387zm-0.2752 0h-0.13207v-0.92387h0.13207v0.92387zm-0.2756 0h-0.13207v-0.92387h0.13207v0.92387zm-0.2752 0h-0.13207v-0.92387h0.13207v0.92387zm-0.2756 0h-0.13207v-0.92387h0.13207v0.92387zm-0.2754 0h-0.13207v-0.92387h0.13207v0.92387zm-0.2754 0h-0.13207v-0.92387h0.13207v0.92387zm-0.2754 0h-0.13207v-0.92387h0.13207v0.92387zm-0.2756 0h-0.13207v-0.92387h0.13207v0.92387zm-0.2754 0h-0.13207v-0.92387h0.13207v0.92387zm-0.2754 0h-0.13207v-0.92387h0.13207v0.92387zm-0.2753 0h-0.13207v-0.92387h0.13207v0.92387zm-0.2757 0h-0.13207v-0.92387h0.13207v0.92387zm-0.2754 0h-0.13207v-0.92387h0.13207v0.92387zm-0.4074-0.052891v-0.87098h0.13207v0.92387h-0.07918zm-0.2754-0.27714v-0.59383h0.13172v0.7266zm-0.27572-0.27712v-0.31672h0.13207v0.44949zm16.311-16.326 1.4872 1.4873-1.4872 1.4872v11.026l1.4872 1.4872h-7.2329l1.4876-1.4872v-18.673l-5.3376-6.9108v25.584l1.4872 1.4872h-7.2329l1.4872-1.4872v-11.026l-1.4872-1.4872 1.4872-1.4872v-17.063l-1.4872-1.4872h5.7457l5.3376 6.9108v-5.4237l-1.4876-1.4872h7.2329l-1.4872 1.4872v17.063zm14.661-12.815 3.5156e-4 -0.85872c0.00875 0.0024609 0.017852 0.0042188 0.026602 0.0070312 0.035742 0.011211 0.069728 0.026289 0.10512 0.038555v0.79738c-0.044492 0.0035156-0.08828 0.0094532-0.13207 0.015742zm-0.1432 0.024c-0.044844 0.0098048-0.08828 0.021758-0.13207 0.034375v-0.97816c0.044844 0.0059376 0.088632 0.011875 0.13207 0.023789v0.92zm-0.2756-0.963v1.044c-0.044492 0.016133-0.088984 0.032617-0.13207 0.051524v-1.1022c0.044492 0.0010547 0.088632 0.0028125 0.13207 0.0066796zm-0.5508 0.023v1.3187c-0.045548 0.033984-0.089688 0.069376-0.13207 0.10688v-1.3989c0.043436-0.010508 0.087576-0.018906 0.13207-0.026602zm-0.5508 0.174 3.9062e-5 1.7521c-0.049064 0.080936-0.093908 0.16398-0.13211 0.25121v-1.9367c0.043088-0.02418 0.087228-0.045548 0.13207-0.066564zm2.4796 0.823c-0.04414-0.014375-0.086876-0.030117-0.13207-0.04168v-0.43024c0.0466 0.042032 0.089688 0.084064 0.13207 0.12996v0.34195zm-0.408-0.091 3.5156e-4 -0.59416c0.012266 0.0073436 0.024883 0.014336 0.036797 0.022383 0.032578 0.02207 0.063048 0.047656 0.094924 0.071132v0.52274c-0.043788-0.0076952-0.087228-0.016797-0.13207-0.02207zm-0.144-9e-3c-0.044492-0.0021094-0.087228-0.0048828-0.13207-0.0045312v-0.73152c0.043788 0.021719 0.088984 0.040624 0.13207 0.063752v0.6723zm-1.1016-0.925v1.1702c-0.045196 0.02418-0.088632 0.05082-0.13207 0.078164v-1.2416c0.043436-0.0042188 0.087928-0.004922 0.13207-0.0066796zm-0.5508 0.092v1.5002c-0.0466 0.049064-0.090392 0.1002-0.13207 0.15344v-1.6053c0.043788-0.016797 0.087228-0.034297 0.13207-0.04832zm-0.59 14.365-0.093164-0.092852v-13.912c0.043088-0.033633 0.086524-0.066912 0.13207-0.097384v0.13242 1.7471c0 0.30375-0.035039 0.60224-0.035742 0.90456-0.0014062 0.73256-3.5156e-4 1.4652-7.0312e-4 2.1977-3.5156e-4 1.2812-7.0312e-4 2.5621-0.0010547 3.8429-3.5156e-4 1.2174-7.0312e-4 2.4346-0.0010547 3.652 0 0.54164-3.5156e-4 1.0836-3.5156e-4 1.6253zm-0.2364-0.237-0.13207-0.13207v-13.377c0.042032-0.046952 0.086172-0.092148 0.13207-0.13524v13.645zm-0.2752-0.275-0.13207-0.13207v-12.718c0.039922-0.071132 0.084764-0.13945 0.13207-0.20531v13.056zm-0.4064-1.87c3.5156e-4 -2.1024 0.0010547-4.2048 0.0021094-6.3072 3.5156e-4 -0.8958 3.5156e-4 -1.792 7.0312e-4 -2.6878 0-0.54376-0.058516-1.1477 0.1282-1.6662v12.256l-0.13137-0.13137c0-0.48768 3.5156e-4 -0.97576 3.5156e-4 -1.4634zm9.2214-13.209v0.93644c-0.042736-0.12332-0.084064-0.24558-0.13207-0.3668v-0.75606c0.044844 0.06168 0.088984 0.12336 0.13207 0.18641zm-0.276-0.376v0.60332c-0.042736-0.093908-0.084412-0.18781-0.13207-0.27926v-0.49152c0.045196 0.054648 0.08828 0.11141 0.13207 0.16746zm1.569 4.568 3.9062e-5 0.40536-0.04836 0.012969v-1.2584c0.03082 0.27606 0.04832 0.55596 0.04832 0.84012zm-0.192-1.676-3.9062e-5 2.1329-0.13207 0.035391v-2.6675c0.050116 0.16394 0.093204 0.3307 0.13211 0.4992zm-0.275-0.921v3.1279l-0.13207 0.035391v-3.4933c0.0466 0.10859 0.09074 0.21859 0.13207 0.33zm-0.276-0.645v3.8468l-0.13207 0.035391v-4.1408c0.045548 0.085116 0.089688 0.17129 0.13207 0.25852zm-0.275 2.751v1.1691l-0.13207 0.035391v-1.1691zm0-3.265v1.621c-0.03957-0.21371-0.078828-0.426-0.13207-0.63692v-1.2006c0.045196 0.071484 0.089336 0.14367 0.13207 0.21656zm-0.276 3.338v1.1695l-0.13207 0.035039v-1.1691zm-0.275 1.243-0.13207 0.035391v-1.1691l0.13207-0.035391v1.1691zm-0.275 0.073-0.13172 0.035391v-1.1691l0.13172-0.035391v1.1691zm-0.276 0.074-0.13207 0.035391v-1.1691l0.13207-0.035391v1.1691zm-0.275 0.074-0.13207 0.035391v-1.1695l0.13207-0.035039v1.1691zm-0.276 0.073-0.13207 0.035391v-1.1695l0.13207-0.035039v1.1691zm-0.275 0.074-0.13172 0.035391v-1.1695l0.13172-0.035039v1.1691zm-0.276 0.073-0.13207 0.035391v-1.1695l0.13207-0.035039v1.1691zm-0.275 0.074-0.13207 0.035391v-1.1695l0.13207-0.035039v1.1691zm-0.275 0.074-0.13207 0.035391v-1.1695l0.13207-0.035039v1.1691zm-0.276 0.073-0.13172 0.035391v-1.1695l0.13172-0.035039v1.1691zm-0.276 0.074-0.13207 0.035391v-1.1695l0.13207-0.035039v1.1691zm-0.275 0.073-0.13207 0.035391v-1.1695l0.13207-0.035039v1.1691zm-0.275 0.074-0.13207 0.035391v-1.1695l0.13207-0.035039v1.1691zm-0.276 0.074-0.13172 0.035391v-1.1695l0.13172-0.035039v1.1691zm-0.275-0.07-0.13207-0.13277v-0.85836l0.13207-0.035039v1.0262zm-0.275-0.276-0.13207-0.13277v-0.50801l0.13207-0.035391v0.67617zm-2.6116 12.094v-0.84328l0.13207 0.13277v0.57879zm-0.2756 0.276v-1.3954l0.13207 0.13242v1.1312zm-0.2756 0.275v-1.8421l0.052892-0.052892 0.07918 0.079884v1.6834zm-0.2752 0.275v-1.8421l0.13207-0.13207v1.8425zm-0.2756 0.276v-1.8421l0.13207-0.13207v1.8425zm-0.184 0.989c-3.5156e-4 1.0805-7.0312e-4 2.1606-7.0312e-4 3.241 0 0.38469-3.5156e-4 0.76936-3.5156e-4 1.1541-3.5156e-4 0.34266 0.04168 0.67932 0.04168 1.023-0.045196-0.029766-0.089688-0.060588-0.13207-0.093868v-7.8803l0.13207-0.13207v1.8425l-0.040272 0.040272c-3.5156e-4 0.26836-3.5156e-4 0.53672-3.5156e-4 0.80544zm-0.2348 5.2018c-0.0459-0.043088-0.09004-0.087928-0.13207-0.13453v-7.3478l0.13207-0.13207v7.6144zm-0.2756-0.3112c-0.049764-0.064804-0.089336-0.13453-0.13207-0.20391v-6.692l0.13207-0.13207v7.0279zm-0.2756-0.5156c-0.079884-0.22633-0.12715-0.4572-0.13207-0.69756v-5.4076l0.13207-0.13207v6.2372zm10.382-9.543-0.0045704 14.943-0.040624-0.040624v-14.948zm-0.19-0.19v14.949l-0.13207-0.13207v-14.949zm-0.275-0.277v14.95l-0.13207-0.13207v-14.951zm-0.275-0.278v14.951l-0.13172-0.13207v-14.952zm2.347 17.303 0.13207 0.13281v0.49082h-0.13207v-0.62363zm-0.275 0.62363v-0.90074l0.13172 0.13277v0.76797h-0.13172zm-0.144 0h-0.13207v-0.92387h0.13207v0.92387zm-0.276 0h-0.13207v-0.92387h0.13207v0.92387zm-0.275 0h-0.13207v-0.92387h0.13207v0.92387zm-0.275 0h-0.13207v-0.92387h0.13207v0.92387zm-0.276 0h-0.13207v-0.92387h0.13207v0.92387zm-0.275 0h-0.13207v-0.92387h0.13207v0.92387zm-0.276 0h-0.13207v-0.92387h0.13207v0.92387zm-0.275 0h-0.13207v-0.92387h0.13207v0.92387zm-0.276 0h-0.13207v-0.92387h0.13207v0.92387zm-0.275 0h-0.13207v-0.92387h0.13207v0.92387zm-0.275 0h-0.13207v-0.92387h0.13207v0.92387zm-0.276 0h-0.13207v-0.92387h0.13207v0.92387zm-0.276 0h-0.13207v-0.92387h0.13207v0.92387zm-0.275 0h-0.13207v-0.92387h0.13207v0.92387zm-0.275 0h-0.13207v-0.92387h0.13207v0.92387zm-0.276 0h-0.13207v-0.92387h0.13207v0.92387zm-0.275 0h-0.13207v-0.92387h0.13207v0.92387zm-0.275 0h-0.13207v-0.92387h0.13207v0.92387zm-0.276 0h-0.13207v-0.92387h0.13207v0.92387zm-0.275 0h-0.13207v-0.92387h0.13207v0.92387zm-0.276 0h-0.13207v-0.92387h0.13207v0.92387zm-0.407-0.25262v-0.67129h0.13207v0.80336zm-0.276-0.16397 7.8124e-5 -0.50728h0.13207v0.52797l-0.049064-0.048712c-0.027344 0.0098048-0.055392 0.018203-0.083088 0.028008zm-0.275 0.09042v-0.59774h0.13207v0.55566c-0.04414 0.014375-0.087928 0.028398-0.13207 0.042072zm-0.276 0.07914v-0.83699l0.13207 0.13207v0.66742c-0.04414 0.012617-0.087928 0.025938-0.13207 0.0375zm-0.275 0.06726v-1.18l0.13207 0.13207v1.0157c-0.04414 0.010859-0.087928 0.022422-0.13207 0.032226zm-0.276 0.05536v-1.1547c0.04414-0.014024 0.08828-0.029453 0.13207-0.044532v1.173c-0.04414 0.0091016-0.087928 0.018203-0.13207 0.02625zm-0.275 0.045232v-1.1179c0.04414-0.012266 0.08828-0.025234 0.13207-0.038203v1.1358c-0.04414 0.0073436-0.087928 0.013984-0.13207 0.020274zm-0.276 0.034764v-1.0816c0.04414-0.010508 0.08828-0.021016 0.13207-0.032226v1.0994c-0.04414 0.0056252-0.08828 0.009492-0.13207 0.014414zm-0.275 0.024493v-1.0465c0.04414-0.00875 0.08828-0.016797 0.13207-0.02625v1.0636c-0.043788 0.0038672-0.08828 0.0059764-0.13207 0.0091408zm-0.276 0.014687v-1.0122c0.04414-0.006992 0.08828-0.01293 0.13207-0.020625v1.0276c-0.04414 0.0021094-0.087928 0.0038672-0.13207 0.0052736zm-0.275 0.0048436v-0.97816c0.04414-0.0052736 0.08828-0.010898 0.13207-0.016836v0.99324c-0.04414 7.0312e-4 -0.087928 0.0017578-0.13207 0.0017578zm-0.2754-0.006992v-0.94238c0.04414-0.0035156 0.087928-0.0084376 0.13207-0.013008v0.95891c-0.04414-0.0010547-0.08828-0.0017578-0.13207-0.0035156zm-0.2756-0.016758v-0.9077c0.04414-0.0017578 0.08828-0.0056252 0.13207-0.0084376v0.92633c-0.044492-0.0028125-0.087928-0.0066796-0.13207-0.010195zm-0.2756-0.025506v-0.87547c0.04414-3.5156e-4 0.08828-0.0017578 0.13207-0.0028125v0.89305c-0.04414-0.0045704-0.08828-0.0098436-0.13207-0.014766zm-0.2756-0.035352v-0.84438c0.04414 0.0014062 0.087928 0.0031641 0.13207 0.0035156v0.85766c-0.04414-0.0059376-0.08828-0.010156-0.13207-0.016797zm-0.2752-0.048752v-0.80726c0.04414 0.0038672 0.087928 0.006328 0.13207 0.0084376v0.82262c-0.04414-0.0076952-0.08828-0.015391-0.13207-0.023789zm-0.2756-0.05859v-0.77012c0.043788 0.0045704 0.087928 0.0070312 0.13207 0.010195v0.79039c-0.044492-0.0091016-0.087928-0.020312-0.13207-0.030469zm-0.2752-0.06871v-0.73609c0.04414 0.0052736 0.087928 0.011211 0.13207 0.016836v0.75465c-0.044492-0.011211-0.08828-0.023476-0.13207-0.035391zm-0.2756-0.07918v-0.70133c0.04414 0.0076952 0.087928 0.016094 0.13207 0.023789v0.71574c-0.04414-0.012969-0.088632-0.024531-0.13207-0.038203zm-0.2756-0.09348v-0.66141c0.04414 0.010508 0.087576 0.019609 0.13207 0.028008v0.67828c-0.04414-0.014726-0.08828-0.029102-0.13207-0.044884zm-0.2756-0.10576v-0.61942c0.043788 0.011211 0.087928 0.020664 0.13207 0.030469v0.64113c-0.044492-0.016836-0.08828-0.034336-0.13207-0.052188zm-0.2752-0.11772v-0.5802c0.04414 0.012617 0.08828 0.025234 0.13207 0.037852v0.60223c-0.044492-0.018906-0.087928-0.039922-0.13207-0.059884zm-0.2756-0.13072v-0.53852c0.04414 0.014726 0.08828 0.029805 0.13207 0.044884v0.55914c-0.044492-0.021016-0.08828-0.043436-0.13207-0.065508zm-0.2756-0.14472v-0.49394c0.043788 0.0175 0.087576 0.035352 0.13207 0.051484v0.51324c-0.04414-0.023476-0.08828-0.0466-0.13207-0.07078zm-0.2752-0.15976v-0.44695c0.04414 0.019961 0.087228 0.038164 0.13207 0.055664v0.46805c-0.04414-0.025586-0.088632-0.050116-0.13207-0.076756zm-0.2756-0.1775v-0.39449c0.043436 0.021016 0.087928 0.040624 0.13207 0.060236v0.41938c-0.04414-0.028359-0.088632-0.056056-0.13207-0.085116zm-0.2756-0.1955v-0.3409c0.04414 0.022774 0.087928 0.045196 0.13207 0.067968v0.36715c-0.04414-0.031172-0.088632-0.061992-0.13207-0.09422zm6.1928-0.5136-3.125e-4 -0.0013672c-0.82156 0.34332-1.7226 0.53424-2.6686 0.53424-3.8258 0-6.9272-3.1012-6.9272-6.9272v-5.5856l-1.4872-1.4872 1.4872-1.4872v-11.623c0-3.8258 3.1012-6.9272 6.9272-6.9272s6.9272 3.1012 6.9272 6.9272l-4.2584 1.1376v-1.1376c0-1.4739-1.1947-2.6686-2.6686-2.6686s-2.6686 1.1947-2.6686 2.6686v11.623l1.4872 1.4872-1.4872 1.4872v5.5859c0 1.4739 1.1947 2.6686 2.6686 2.6686 1.4736 0 2.6682-1.1947 2.6686-2.6682v-7.7153l-1.4872-1.4872h5.7457v14.642l1.4872 1.4872h-5.2125z"/>
    </g>
    <g transform="matrix(.77025 0 0 .77025 110.46 156.53)" fill="#fcfcfc" featurekey="sloganFeature-0">
        <path d="m8.5 13.4h-5v5.3h5c1.1 0 2-0.9 2-2v-1.3c0-1.1-0.9-2-2-2zm1.1-0.9v0.1s2.4 0.4 2.4 2.8v1.3c0 1.9-1.4 3.3-3.5 3.3h-6.5v-14h5.8c2.1 0 3.5 1.4 3.5 3.3v0.8c0 2-1.7 2.4-1.7 2.4zm-1.8-5.2h-4.3v4.8h4.3c1.1 0 2-0.9 2-2v-0.8c0-1.1-0.9-2-2-2zm6.8 9.6v-7.8c0-1.9 1.4-3.3 3.5-3.3h3.5c2.1 0 3.5 1.4 3.5 3.3v7.8c0 1.9-1.4 3.3-3.5 3.3h-3.5c-2.1 0-3.5-1.4-3.5-3.3zm9 0v-7.8c0-1.1-0.9-2-2-2h-3.5c-1.1 0-2 0.9-2 2v7.8c0 1.1 0.9 2 2 2h3.5c1.1 0 2-0.9 2-2zm6.1-0.5-1.2 3.6h-1.5v-0.6l4.9-13.4h1.7l4.9 13.4v0.6h-1.5l-1.2-3.6h-6.1zm5.6-1.3-2.5-7.3h-0.1l-2.5 7.3h5.1zm9.6-7.8v12.7h-1.5v-12.7h-4.4v-1.3h10.3v0.9l-0.4 0.4h-4zm14.9 0v12.7h-1.5v-12.7h-4.4v-1.3h10.3v0.9l-0.4 0.4h-4zm6.2 9.6v-7.8c0-1.9 1.4-3.3 3.5-3.3h3.5c2.1 0 3.5 1.4 3.5 3.3v7.8c0 1.9-1.4 3.3-3.5 3.3h-3.5c-2.1 0-3.5-1.4-3.5-3.3zm9 0v-7.8c0-1.1-0.9-2-2-2h-3.5c-1.1 0-2 0.9-2 2v7.8c0 1.1 0.9 2 2 2h3.5c1.1 0 2-0.9 2-2zm11.6 3.3h-3c-2.1 0-3.5-1.4-3.5-3.3v-10.9h1.5v10.9c0 1.1 0.9 2 2 2h3c1.1 0 2-0.9 2-2v-10.9h1.5v10.9c0 1.9-1.4 3.3-3.5 3.3zm9-0.2h-1.5v-14h6.2c2.1 0 3.5 1.4 3.5 3.3v1.9c0 2.8-2.7 3.2-2.7 3.2l3.1 5v0.6h-1.5l-3.1-5.5h-4v5.5zm4.7-12.7h-4.7v5.9h4.7c1.1 0 2-0.9 2-2v-1.9c0-1.1-0.9-2-2-2zm6 2.6v-0.6c0-1.9 1.4-3.3 3.5-3.3h5.5v0.9l-0.4 0.4h-5.1c-1.1 0-2 0.9-2 2v0.6c0 1.1 0.6 1.68 1.6 1.9l3.7 0.8c1.4 0.3 2.5 1.4 2.5 3.2v0.9c0 1.9-1.4 3.3-3.5 3.3h-6v-1.3h6c1.1 0 2-0.9 2-2v-0.9c0-1.1-0.6-1.68-1.6-1.9l-3.7-0.8c-1.4-0.3-2.5-1.4-2.5-3.2z"/>
    </g>
</svg>